<?xml version="1.0" encoding="utf-8"?>
<!-- Generator: Adobe Illustrator 19.1.0, SVG Export Plug-In . SVG Version: 6.00 Build 0)  -->
<svg version="1.1" id="Layer_1" xmlns:svg="http://www.w3.org/2000/svg"
	 xmlns="http://www.w3.org/2000/svg" xmlns:xlink="http://www.w3.org/1999/xlink" x="0px" y="0px"
	 viewBox="-69.8 -171.2 705.5 1133.8" style="enable-background:new -69.8 -171.2 705.5 1133.8;" xml:space="preserve">
<style type="text/css">
	.st0{fill:#2DB6B8;}
	.st1{fill:#1A1A1A;}
	.st2{fill:#9A916C;}
	.st3{fill:#164281;}
	.st4{fill:#243264;}
	.st5{fill:#4D4D4D;}
	.st6{fill:#DDE6DD;}
	.st7{fill:#CCCCCC;}
	.st8{fill:#F2F2F2;}
	.st9{fill:#B3B3B3;}
	.st10{fill:#915A3C;}
	.st11{fill:#DCDCDC;}
	.st12{opacity:0.2;fill:#FFFFFF;enable-background:new    ;}
	.st13{opacity:0.2;enable-background:new    ;}
	.st14{fill:#603C29;}
	.st15{fill:#333333;}
	.st16{font-family:'OCRAStd';}
	.st17{font-size:24px;}
	.st18{font-size:17.5968px;}
	.st19{font-size:23.9993px;}
	.st20{font-size:23.9998px;}
	.st21{fill:none;}
	.st22{fill:#22B573;fill-opacity:0.7;}
	.st23{fill:#FFFFFF;}
	.st24{fill:#D1C690;}
	.st25{fill:#9D956C;}
	.st26{opacity:0.5;fill:#FFFFFF;enable-background:new    ;}
	.st27{opacity:0.5;fill:#F2F2F2;enable-background:new    ;}
	.st28{opacity:0.55;fill:#FFFFFF;enable-background:new    ;}
	.st29{opacity:3.000000e-02;enable-background:new    ;}
	.st30{fill:#8C8C8C;}
	.st31{fill:#474747;}
	.st32{fill:#666666;}
	.st33{fill:#C4C4C4;}
	.st34{fill:#EDEDED;}
	.st35{fill:#404040;}
	.st36{fill:#AD6A38;}
	.st37{fill:#EF6100;}
</style>
<g>
	<g>
		<g transform="translate(73.5069,0)">
			<g transform="matrix(0,1,-1,0,0,0)">
				<g id="breadboard">
					<g id="icon">
						<path class="st0" d="M-117.7-324.8v103.7c0,98.6,79.9,178.6,178.6,178.6h673.6C833-42.5,913-122.4,913-221.1v-103.7
							c0-98.6-79.9-178.6-178.5-178.6H60.9C-37.8-503.3-117.7-423.4-117.7-324.8 M495.4-186.5c0-6.4,5.2-11.5,11.5-11.5
							c6.4,0,11.5,5.1,11.5,11.5l0,0c0,6.4-5.2,11.5-11.5,11.5C500.5-174.9,495.4-180.1,495.4-186.5L495.4-186.5z M576-474.5
							c0-6.4,5.1-11.5,11.5-11.5s11.5,5.1,11.5,11.5l0,0c0,6.4-5.2,11.5-11.5,11.5C581.2-463,576-468.1,576-474.5L576-474.5z
							 M576-416.9c0-6.4,5.1-11.5,11.5-11.5s11.5,5.2,11.5,11.5l0,0c0,6.4-5.2,11.5-11.5,11.5C581.2-405.4,576-410.6,576-416.9
							L576-416.9z M576-359.3c0-6.4,5.1-11.5,11.5-11.5s11.5,5.2,11.5,11.5l0,0c0,6.4-5.2,11.5-11.5,11.5
							C581.2-347.8,576-353,576-359.3L576-359.3z M576-301.7c0-6.4,5.1-11.5,11.5-11.5s11.5,5.1,11.5,11.5c0,0,0,0,0,0.1
							c0,6.4-5.2,11.5-11.5,11.5C581.2-290.2,576-295.3,576-301.7L576-301.7z M576-244.1c0-6.4,5.1-11.5,11.5-11.5
							s11.5,5.1,11.5,11.5l0,0c0,6.4-5.2,11.5-11.5,11.5C581.2-232.5,576-237.7,576-244.1L576-244.1z M576-186.5
							c0-6.4,5.1-11.5,11.5-11.5s11.5,5.1,11.5,11.5l0,0c0,6.4-5.2,11.5-11.5,11.5C581.2-174.9,576-180.1,576-186.5L576-186.5z
							 M576-128.9c0-6.4,5.1-11.5,11.5-11.5s11.5,5.2,11.5,11.5l0,0c0,6.4-5.2,11.5-11.5,11.5C581.2-117.4,576-122.6,576-128.9
							L576-128.9z M576-71.3c0-6.4,5.1-11.5,11.5-11.5S599-77.6,599-71.3l0,0c0,6.4-5.2,11.5-11.5,11.5C581.2-59.8,576-65,576-71.3
							L576-71.3z M633.6-474.5c0-6.4,5.2-11.5,11.5-11.5c6.4,0,11.5,5.1,11.5,11.5l0,0c0,6.4-5.2,11.5-11.5,11.5
							S633.6-468.1,633.6-474.5L633.6-474.5z M691.2-474.5c0-6.4,5.2-11.5,11.5-11.5c6.4,0,11.5,5.1,11.5,11.5l0,0
							c0,6.4-5.2,11.5-11.5,11.5C696.4-462.9,691.3-468.1,691.2-474.5L691.2-474.5z M633.6-301.7c0-6.4,5.2-11.5,11.5-11.5
							s11.5,5.1,11.5,11.5c0,0,0,0,0,0.1c0,6.4-5.2,11.5-11.5,11.5C638.8-290.2,633.6-295.3,633.6-301.7L633.6-301.7z M633.6-416.9
							c0-6.4,5.2-11.5,11.5-11.5s11.5,5.2,11.5,11.5l0,0c0,6.4-5.2,11.5-11.5,11.5S633.6-410.6,633.6-416.9L633.6-416.9z
							 M691.2-416.9c0-6.4,5.2-11.5,11.5-11.5c6.4,0,11.5,5.2,11.5,11.5l0,0c0,6.4-5.2,11.5-11.5,11.5S691.3-410.6,691.2-416.9
							L691.2-416.9z M691.2-301.7c0-6.4,5.2-11.5,11.5-11.5c6.4,0,11.5,5.1,11.5,11.5c0,0,0,0,0,0.1c0,6.4-5.2,11.5-11.5,11.5
							C696.4-290.2,691.3-295.3,691.2-301.7L691.2-301.7z M633.6-359.3c0-6.4,5.2-11.5,11.5-11.5s11.5,5.2,11.5,11.5l0,0
							c0,6.4-5.2,11.5-11.5,11.5S633.6-353,633.6-359.3L633.6-359.3z M691.2-359.3c0-6.4,5.2-11.5,11.5-11.5
							c6.4,0,11.5,5.2,11.5,11.5l0,0c0,6.4-5.2,11.5-11.5,11.5S691.3-353,691.2-359.3L691.2-359.3z M633.6-71.3
							c0-6.4,5.2-11.5,11.5-11.5s11.5,5.2,11.5,11.5l0,0c0,6.4-5.2,11.5-11.5,11.5S633.6-65,633.6-71.3L633.6-71.3z M633.6-128.9
							c0-6.4,5.2-11.5,11.5-11.5s11.5,5.2,11.5,11.5l0,0c0,6.4-5.2,11.5-11.5,11.5S633.6-122.6,633.6-128.9L633.6-128.9z
							 M633.6-186.5c0-6.4,5.2-11.5,11.5-11.5c6.4,0,11.5,5.1,11.5,11.5l0,0c0,6.4-5.2,11.5-11.5,11.5
							C638.8-174.9,633.6-180.1,633.6-186.5L633.6-186.5z M633.6-244.1c0-6.4,5.2-11.5,11.5-11.5c6.4,0,11.5,5.1,11.5,11.5l0,0
							c0,6.4-5.2,11.5-11.5,11.5C638.8-232.5,633.6-237.7,633.6-244.1L633.6-244.1z M748.8-359.3c0-6.4,5.2-11.5,11.5-11.5
							s11.5,5.2,11.5,11.5l0,0c0,6.4-5.2,11.5-11.5,11.5S748.8-353,748.8-359.3L748.8-359.3z M691.2-71.3c0-6.4,5.2-11.5,11.5-11.5
							c6.4,0,11.5,5.2,11.5,11.5l0,0c0,6.4-5.2,11.5-11.5,11.5S691.3-65,691.2-71.3L691.2-71.3z M691.2-128.9
							c0-6.4,5.2-11.5,11.5-11.5c6.4,0,11.5,5.2,11.5,11.5l0,0c0,6.4-5.2,11.5-11.5,11.5S691.3-122.6,691.2-128.9L691.2-128.9z
							 M691.2-186.5c0-6.4,5.2-11.5,11.5-11.5c6.4,0,11.5,5.1,11.5,11.5l0,0c0,6.4-5.2,11.5-11.5,11.5
							C696.4-174.9,691.3-180.1,691.2-186.5L691.2-186.5z M691.2-244.1c0-6.4,5.2-11.5,11.5-11.5c6.4,0,11.5,5.1,11.5,11.5l0,0
							c0,6.4-5.2,11.5-11.5,11.5C696.4-232.5,691.3-237.7,691.2-244.1L691.2-244.1z M748.8-416.9c0-6.4,5.2-11.5,11.5-11.5
							s11.5,5.2,11.5,11.5l0,0c0,6.4-5.2,11.5-11.5,11.5S748.8-410.6,748.8-416.9L748.8-416.9z M748.8-301.7
							c0-6.4,5.2-11.5,11.5-11.5s11.5,5.1,11.5,11.5c0,0,0,0,0,0.1c0,6.4-5.2,11.5-11.5,11.5C754-290.2,748.8-295.3,748.8-301.7
							L748.8-301.7z M748.8-128.9c0-6.4,5.2-11.5,11.5-11.5s11.5,5.2,11.5,11.5l0,0c0,6.4-5.2,11.5-11.5,11.5
							S748.8-122.6,748.8-128.9L748.8-128.9z M748.8-186.5c0-6.4,5.2-11.5,11.5-11.5c6.4,0,11.5,5.1,11.5,11.5l0,0
							c0,6.4-5.2,11.5-11.5,11.5C754-174.9,748.8-180.1,748.8-186.5L748.8-186.5z M748.8-244.1c0-6.4,5.2-11.5,11.5-11.5
							c6.4,0,11.5,5.1,11.5,11.5l0,0c0,6.4-5.2,11.5-11.5,11.5C754-232.5,748.8-237.7,748.8-244.1L748.8-244.1z M806.4-416.9
							c0-6.4,5.2-11.5,11.5-11.5c6.4,0,11.5,5.2,11.5,11.5l0,0c0,6.4-5.2,11.5-11.5,11.5S806.4-410.6,806.4-416.9L806.4-416.9z
							 M806.4-359.3c0-6.4,5.2-11.5,11.5-11.5c6.4,0,11.5,5.2,11.5,11.5l0,0c0,6.4-5.2,11.5-11.5,11.5S806.4-353,806.4-359.3
							L806.4-359.3z M806.4-186.5c0-6.4,5.2-11.5,11.5-11.5c6.4,0,11.5,5.1,11.5,11.5l0,0c0,6.4-5.2,11.5-11.5,11.5
							S806.4-180.1,806.4-186.5L806.4-186.5z M806.4-301.7c0-6.4,5.2-11.5,11.5-11.5c6.4,0,11.5,5.1,11.5,11.5c0,0,0,0,0,0.1
							c0,6.4-5.2,11.5-11.5,11.5S806.4-295.3,806.4-301.7L806.4-301.7z M806.4-128.9c0-6.4,5.2-11.5,11.5-11.5
							c6.4,0,11.5,5.2,11.5,11.5l0,0c0,6.4-5.2,11.5-11.5,11.5S806.4-122.6,806.4-128.9L806.4-128.9z M806.4-244.1
							c0-6.4,5.2-11.5,11.5-11.5c6.4,0,11.5,5.1,11.5,11.5l0,0c0,6.4-5.2,11.5-11.5,11.5S806.4-237.7,806.4-244.1L806.4-244.1z
							 M748.8-474.5c0-6.4,5.2-11.5,11.5-11.5c6.4,0,11.5,5.1,11.5,11.5l0,0c0,6.4-5.2,11.5-11.5,11.5
							C754-462.9,748.8-468.1,748.8-474.5L748.8-474.5z M864-359.3c0-6.4,5.2-11.5,11.5-11.5s11.5,5.2,11.5,11.5
							c0,6.3-5.2,11.5-11.5,11.5C869.2-347.8,864-353,864-359.3z M748.8-71.3c0-6.4,5.2-11.5,11.5-11.5s11.5,5.2,11.5,11.5l0,0
							c0,6.4-5.2,11.5-11.5,11.5S748.8-65,748.8-71.3L748.8-71.3z M864-301.7c0-6.4,5.2-11.5,11.5-11.5S887-308,887-301.7l0,0
							c0,6.4-5.2,11.5-11.5,11.5C869.2-290.2,864-295.4,864-301.7z M864-244.1c0-6.4,5.2-11.5,11.5-11.5s11.5,5.2,11.5,11.5l0,0
							c0,6.4-5.2,11.5-11.5,11.5C869.2-232.6,864-237.8,864-244.1z M864-186.5c0-6.4,5.2-11.5,11.5-11.5s11.5,5.2,11.5,11.5
							s-5.2,11.5-11.5,11.5C869.2-175,864-180.2,864-186.5z M495.4-474.5c0-6.4,5.2-11.5,11.5-11.5c6.4,0,11.5,5.1,11.5,11.5l0,0
							c0,6.4-5.2,11.5-11.5,11.5C500.5-463,495.4-468.1,495.4-474.5L495.4-474.5z M495.4-128.9c0-6.4,5.2-11.5,11.5-11.5
							c6.3,0,11.5,5.2,11.5,11.5l0,0c0,6.4-5.2,11.5-11.5,11.5C500.5-117.4,495.4-122.6,495.4-128.9L495.4-128.9z M437.8-71.3
							c0-6.4,5.2-11.5,11.5-11.5c6.4,0,11.5,5.2,11.5,11.5l0,0c0,6.4-5.2,11.5-11.5,11.5C443-59.8,437.8-65,437.8-71.3L437.8-71.3z
							 M495.4-71.3c0-6.4,5.2-11.5,11.5-11.5c6.3,0,11.5,5.2,11.5,11.5l0,0c0,6.4-5.2,11.5-11.5,11.5
							C500.5-59.8,495.4-65,495.4-71.3L495.4-71.3z"/>
						<g>
							<title>layer 17</title>
							<g>
								<title>element:C1</title>
								<g>
									<title>package:0402</title>
								</g>
							</g>
							<g>
								<title>element:C2</title>
								<g>
									<title>package:0805</title>
								</g>
							</g>
							<g>
								<title>element:C3</title>
								<g>
									<title>package:0402</title>
								</g>
							</g>
							<g>
								<title>element:C4</title>
								<g>
									<title>package:0402</title>
								</g>
							</g>
							<g>
								<title>element:C5</title>
								<g>
									<title>package:0402</title>
								</g>
							</g>
							<g>
								<title>element:C6</title>
								<g>
									<title>package:0402</title>
								</g>
							</g>
							<g>
								<title>element:C7</title>
								<g>
									<title>package:0402</title>
								</g>
							</g>
							<g>
								<title>element:C8</title>
								<g>
									<title>package:0805</title>
								</g>
							</g>
							<g>
								<title>element:C9</title>
								<g>
									<title>package:0402</title>
								</g>
							</g>
							<g>
								<title>element:C10</title>
								<g>
									<title>package:0603-CAP</title>
								</g>
							</g>
							<g>
								<title>element:C11</title>
								<g>
									<title>package:0402</title>
								</g>
							</g>
							<g>
								<title>element:C12</title>
								<g>
									<title>package:0402</title>
								</g>
							</g>
							<g>
								<title>element:C13</title>
								<g>
									<title>package:0402</title>
								</g>
							</g>
							<g>
								<title>element:CN_BATT</title>
								<g>
									<title>package:BK-912-ALT</title>
								</g>
							</g>
							<g>
								<title>element:LED1</title>
								<g>
									<title>package:SML-LX0404SIUPGUSB</title>
								</g>
							</g>
							<g>
								<title>element:Q1</title>
								<g>
									<title>package:SOT523</title>
								</g>
							</g>
							<g>
								<title>element:Q2</title>
								<g>
									<title>package:SOT523</title>
								</g>
							</g>
							<g>
								<title>element:R1</title>
								<g>
									<title>package:0402</title>
								</g>
							</g>
							<g>
								<title>element:R2</title>
								<g>
									<title>package:0402</title>
								</g>
							</g>
							<g>
								<title>element:R3</title>
								<g>
									<title>package:0402</title>
								</g>
							</g>
							<g>
								<title>element:R4</title>
								<g>
									<title>package:0402</title>
								</g>
							</g>
							<g>
								<title>element:R5</title>
								<g>
									<title>package:0402</title>
								</g>
							</g>
							<g>
								<title>element:R6</title>
								<g>
									<title>package:0402</title>
								</g>
							</g>
							<g>
								<title>element:TP1</title>
								<g>
									<title>package:TP06R</title>
								</g>
							</g>
							<g>
								<title>element:TP2</title>
								<g>
									<title>package:TP06R</title>
								</g>
							</g>
							<g>
								<title>element:TP3</title>
								<g>
									<title>package:TP06R</title>
								</g>
							</g>
							<g>
								<title>element:TP4</title>
								<g>
									<title>package:TP06R</title>
								</g>
							</g>
							<g>
								<title>element:TP5</title>
								<g>
									<title>package:TP06R</title>
								</g>
							</g>
							<g>
								<title>element:TP6</title>
								<g>
									<title>package:TP06R</title>
								</g>
							</g>
							<g>
								<title>element:TP7</title>
								<g>
									<title>package:TP06R</title>
								</g>
							</g>
							<g>
								<title>element:TP8</title>
								<g>
									<title>package:TP06R</title>
								</g>
							</g>
							<g>
								<title>element:TP9</title>
								<g>
									<title>package:TP06R</title>
								</g>
							</g>
							<g>
								<title>element:TP10</title>
								<g>
									<title>package:TP06R</title>
								</g>
							</g>
							<g>
								<title>element:TP11</title>
								<g>
									<title>package:TP06R</title>
								</g>
							</g>
							<g>
								<title>element:TP12</title>
								<g>
									<title>package:TP06R</title>
								</g>
							</g>
							<g>
								<title>element:TP14</title>
								<g>
									<title>package:TP06R</title>
								</g>
							</g>
							<g>
								<title>element:TP15</title>
								<g>
									<title>package:TP06R</title>
								</g>
							</g>
							<g>
								<title>element:TP16</title>
								<g>
									<title>package:TP06R</title>
								</g>
							</g>
							<g>
								<title>element:TP17</title>
								<g>
									<title>package:TP06R</title>
								</g>
							</g>
							<g>
								<title>element:TP19</title>
								<g>
									<title>package:TP14R</title>
								</g>
							</g>
							<g>
								<title>element:U$1</title>
								<g>
									<title>package:1X01</title>
								</g>
							</g>
							<g>
								<title>element:U$3</title>
								<g>
									<title>package:1X01</title>
								</g>
							</g>
							<g>
								<title>element:U$4</title>
								<g>
									<title>package:1X01</title>
								</g>
							</g>
							<g>
								<title>element:U$5</title>
								<g>
									<title>package:1X01</title>
								</g>
							</g>
							<g>
								<title>element:U$6</title>
								<g>
									<title>package:1X01</title>
								</g>
							</g>
							<g>
								<title>element:U$7</title>
								<g>
									<title>package:1X01</title>
								</g>
							</g>
							<g>
								<title>element:U$8</title>
								<g>
									<title>package:1X01</title>
								</g>
							</g>
							<g>
								<title>element:U$9</title>
								<g>
									<title>package:1X01</title>
								</g>
							</g>
							<g>
								<title>element:U$10</title>
								<g>
									<title>package:1X01</title>
								</g>
							</g>
							<g>
								<title>element:U$11</title>
								<g>
									<title>package:1X01</title>
								</g>
							</g>
							<g>
								<title>element:U$12</title>
								<g>
									<title>package:1X01</title>
								</g>
							</g>
							<g>
								<title>element:U$13</title>
								<g>
									<title>package:1X01</title>
								</g>
							</g>
							<g>
								<title>element:U$14</title>
								<g>
									<title>package:1X01</title>
								</g>
							</g>
							<g>
								<title>element:U$15</title>
								<g>
									<title>package:1X01</title>
								</g>
							</g>
							<g>
								<title>element:U$16</title>
								<g>
									<title>package:1X01</title>
								</g>
							</g>
							<g>
								<title>element:U$17</title>
								<g>
									<title>package:1X01</title>
								</g>
							</g>
							<g>
								<title>element:U$18</title>
								<g>
									<title>package:1X01</title>
								</g>
							</g>
							<g>
								<title>element:U$19</title>
								<g>
									<title>package:1X01</title>
								</g>
							</g>
							<g>
								<title>element:U$20</title>
								<g>
									<title>package:1X01</title>
								</g>
							</g>
							<g>
								<title>element:U$21</title>
								<g>
									<title>package:1X01</title>
								</g>
							</g>
							<g>
								<title>element:U$22</title>
								<g>
									<title>package:1X01</title>
								</g>
							</g>
							<g>
								<title>element:U$23</title>
								<g>
									<title>package:1X01</title>
								</g>
							</g>
							<g>
								<title>element:U$24</title>
								<g>
									<title>package:1X01</title>
								</g>
							</g>
							<g>
								<title>element:U$25</title>
								<g>
									<title>package:1X01</title>
								</g>
							</g>
							<g>
								<title>element:U$26</title>
								<g>
									<title>package:1X01</title>
								</g>
							</g>
							<g>
								<title>element:U$27</title>
								<g>
									<title>package:1X01</title>
								</g>
							</g>
							<g>
								<title>element:U$28</title>
								<g>
									<title>package:1X01</title>
								</g>
							</g>
							<g>
								<title>element:U$29</title>
								<g>
									<title>package:1X01</title>
								</g>
							</g>
							<g>
								<title>element:U$30</title>
								<g>
									<title>package:1X01</title>
								</g>
							</g>
							<g>
								<title>element:U$31</title>
								<g>
									<title>package:1X01</title>
								</g>
							</g>
							<g>
								<title>element:U$32</title>
								<g>
									<title>package:1X01</title>
								</g>
							</g>
							<g>
								<title>element:U$33</title>
								<g>
									<title>package:1X01</title>
								</g>
							</g>
							<g>
								<title>element:U$34</title>
								<g>
									<title>package:1X01</title>
								</g>
							</g>
							<g>
								<title>element:U$35</title>
								<g>
									<title>package:1X01</title>
								</g>
							</g>
							<g>
								<title>element:U$36</title>
								<g>
									<title>package:1X01</title>
								</g>
							</g>
							<g>
								<title>element:U$37</title>
								<g>
									<title>package:1X01</title>
								</g>
							</g>
							<g>
								<title>element:U$38</title>
								<g>
									<title>package:1X01</title>
								</g>
							</g>
							<g>
								<title>element:U$39</title>
								<g>
									<title>package:1X01</title>
								</g>
							</g>
							<g>
								<title>element:U$40</title>
								<g>
									<title>package:1X01</title>
								</g>
							</g>
							<g>
								<title>element:U$41</title>
								<g>
									<title>package:1X01</title>
								</g>
							</g>
							<g>
								<title>element:U$42</title>
								<g>
									<title>package:1X01</title>
								</g>
							</g>
							<g>
								<title>element:U$43</title>
								<g>
									<title>package:1X01</title>
								</g>
							</g>
							<g>
								<title>element:U$44</title>
								<g>
									<title>package:1X01</title>
								</g>
							</g>
							<g>
								<title>element:U$45</title>
								<g>
									<title>package:1X01</title>
								</g>
							</g>
							<g>
								<title>element:U$46</title>
								<g>
									<title>package:1X01</title>
								</g>
							</g>
							<g>
								<title>element:U$49</title>
								<g>
									<title>package:BEAN_PROGAM_PIN</title>
								</g>
							</g>
							<g>
								<title>element:U$50</title>
								<g>
									<title>package:BEAN_PROGAM_PIN</title>
								</g>
							</g>
							<g>
								<title>element:U$51</title>
								<g>
									<title>package:BEAN_PROGAM_PIN</title>
								</g>
							</g>
							<g>
								<title>element:U$52</title>
								<g>
									<title>package:1X01</title>
								</g>
							</g>
							<g>
								<title>element:U$53</title>
								<g>
									<title>package:1X01</title>
								</g>
							</g>
							<g>
								<title>element:U1</title>
								<g>
									<title>package:PTD0313001E</title>
								</g>
							</g>
							<g>
								<title>element:U2</title>
								<g>
									<title>package:QFN-28-4X4</title>
								</g>
							</g>
							<g>
								<title>element:U3</title>
								<g>
									<title>package:BMA250</title>
								</g>
							</g>
							<g>
								<title>element:U4</title>
								<g>
									<title>package:CSTCE_G_3PIN_XTAL</title>
								</g>
							</g>
							<g>
								<title>element:Y1</title>
								<g>
									<title>package:9HT10</title>
								</g>
							</g>
						</g>
						<polygon class="st1" points="320.4,-324 411.2,-324 411.2,-233.3 329.5,-233.3 320.4,-242.4 						"/>
						<path class="st2" d="M528.2-186.5c0,11.8-9.6,21.3-21.3,21.3c-11.7,0-21.3-9.6-21.3-21.3c0-11.8,9.6-21.3,21.3-21.3
							S528.2-198.3,528.2-186.5z M495.4-186.5c0,6.4,5.2,11.5,11.5,11.5c6.3,0,11.5-5.2,11.5-11.5s-5.2-11.5-11.5-11.5
							C500.6-198,495.4-192.9,495.4-186.5z"/>
						<path class="st2" d="M608.9-474.5c0,11.8-9.6,21.3-21.3,21.3s-21.3-9.6-21.3-21.3c0-11.7,9.6-21.3,21.3-21.3
							S608.9-486.3,608.9-474.5z M576.1-474.5c0,6.4,5.2,11.5,11.5,11.5s11.5-5.2,11.5-11.5c0-6.3-5.2-11.5-11.5-11.5
							S576.1-480.9,576.1-474.5z"/>
						<path class="st2" d="M608.9-416.9c0,11.8-9.6,21.3-21.3,21.3s-21.3-9.6-21.3-21.3c0-11.7,9.6-21.3,21.3-21.3
							S608.9-428.7,608.9-416.9z M576.1-416.9c0,6.4,5.2,11.5,11.5,11.5s11.5-5.2,11.5-11.5c0-6.3-5.2-11.5-11.5-11.5
							S576.1-423.3,576.1-416.9z"/>
						<path class="st2" d="M608.9-359.3c0,11.8-9.6,21.3-21.3,21.3s-21.3-9.6-21.3-21.3c0-11.7,9.6-21.3,21.3-21.3
							S608.9-371.1,608.9-359.3z M576.1-359.3c0,6.4,5.2,11.5,11.5,11.5s11.5-5.2,11.5-11.5c0-6.3-5.2-11.5-11.5-11.5
							S576.1-365.7,576.1-359.3z"/>
						<path class="st2" d="M608.9-301.7c0,11.8-9.6,21.3-21.3,21.3s-21.3-9.6-21.3-21.3c0-11.8,9.6-21.3,21.3-21.3
							S608.9-313.5,608.9-301.7z M576.1-301.7c0,6.4,5.2,11.5,11.5,11.5s11.5-5.2,11.5-11.5c0-6.3-5.2-11.5-11.5-11.5
							S576.1-308.1,576.1-301.7z"/>
						<path class="st2" d="M608.9-244.1c0,11.8-9.6,21.3-21.3,21.3s-21.3-9.6-21.3-21.3c0-11.8,9.6-21.3,21.3-21.3
							S608.9-255.9,608.9-244.1z M576.1-244.1c0,6.4,5.2,11.5,11.5,11.5s11.5-5.2,11.5-11.5s-5.2-11.5-11.5-11.5
							S576.1-250.5,576.1-244.1z"/>
						<path class="st2" d="M608.9-186.5c0,11.8-9.6,21.3-21.3,21.3s-21.3-9.6-21.3-21.3c0-11.8,9.6-21.3,21.3-21.3
							S608.9-198.3,608.9-186.5z M576.1-186.5c0,6.4,5.2,11.5,11.5,11.5s11.5-5.2,11.5-11.5s-5.2-11.5-11.5-11.5
							S576.1-192.9,576.1-186.5z"/>
						<path class="st2" d="M608.9-128.9c0,11.8-9.6,21.3-21.3,21.3s-21.3-9.6-21.3-21.3c0-11.8,9.6-21.3,21.3-21.3
							S608.9-140.7,608.9-128.9z M576.1-128.9c0,6.4,5.2,11.5,11.5,11.5s11.5-5.2,11.5-11.5s-5.2-11.5-11.5-11.5
							S576.1-135.3,576.1-128.9z"/>
						<path class="st2" d="M608.9-71.3c0,11.8-9.6,21.3-21.3,21.3s-21.3-9.6-21.3-21.3c0-11.8,9.6-21.3,21.3-21.3
							S608.9-83.1,608.9-71.3z M576.1-71.3c0,6.4,5.2,11.5,11.5,11.5s11.5-5.2,11.5-11.5s-5.2-11.5-11.5-11.5S576.1-77.7,576.1-71.3
							z"/>
						<path class="st2" d="M666.5-474.5c0,11.8-9.6,21.3-21.3,21.3c-11.8,0-21.3-9.6-21.3-21.3c0-11.7,9.6-21.3,21.3-21.3
							C656.9-495.8,666.5-486.3,666.5-474.5z M633.6-474.5c0,6.4,5.2,11.5,11.5,11.5s11.5-5.2,11.5-11.5c0-6.3-5.2-11.5-11.5-11.5
							S633.6-480.9,633.6-474.5z"/>
						<path class="st2" d="M724.1-474.5c0,11.8-9.6,21.3-21.3,21.3c-11.8,0-21.3-9.6-21.3-21.3c0-11.7,9.6-21.3,21.3-21.3
							S724.1-486.3,724.1-474.5z M691.2-474.5c0,6.4,5.2,11.5,11.5,11.5s11.5-5.2,11.5-11.5c0-6.3-5.2-11.5-11.5-11.5
							S691.2-480.9,691.2-474.5z"/>
						<path class="st2" d="M666.5-301.7c0,11.8-9.6,21.3-21.3,21.3c-11.8,0-21.3-9.6-21.3-21.3c0-11.8,9.6-21.3,21.3-21.3
							C656.9-323,666.5-313.5,666.5-301.7z M633.6-301.7c0,6.4,5.2,11.5,11.5,11.5s11.5-5.2,11.5-11.5c0-6.3-5.2-11.5-11.5-11.5
							S633.6-308.1,633.6-301.7z"/>
						<path class="st2" d="M666.5-416.9c0,11.8-9.6,21.3-21.3,21.3c-11.8,0-21.3-9.6-21.3-21.3c0-11.7,9.6-21.3,21.3-21.3
							C656.9-438.2,666.5-428.7,666.5-416.9z M633.6-416.9c0,6.4,5.2,11.5,11.5,11.5s11.5-5.2,11.5-11.5c0-6.3-5.2-11.5-11.5-11.5
							S633.6-423.3,633.6-416.9z"/>
						<path class="st2" d="M724.1-416.9c0,11.8-9.6,21.3-21.3,21.3c-11.8,0-21.3-9.6-21.3-21.3c0-11.7,9.6-21.3,21.3-21.3
							S724.1-428.7,724.1-416.9z M691.2-416.9c0,6.4,5.2,11.5,11.5,11.5s11.5-5.2,11.5-11.5c0-6.3-5.2-11.5-11.5-11.5
							S691.2-423.3,691.2-416.9z"/>
						<path class="st2" d="M724.1-301.7c0,11.8-9.6,21.3-21.3,21.3c-11.8,0-21.3-9.6-21.3-21.3c0-11.8,9.6-21.3,21.3-21.3
							C714.5-323,724.1-313.5,724.1-301.7z M691.2-301.7c0,6.4,5.2,11.5,11.5,11.5s11.5-5.2,11.5-11.5c0-6.3-5.2-11.5-11.5-11.5
							S691.2-308.1,691.2-301.7z"/>
						<path class="st2" d="M666.5-359.3c0,11.8-9.6,21.3-21.3,21.3c-11.8,0-21.3-9.6-21.3-21.3c0-11.7,9.6-21.3,21.3-21.3
							C656.9-380.6,666.5-371.1,666.5-359.3z M633.6-359.3c0,6.4,5.2,11.5,11.5,11.5s11.5-5.2,11.5-11.5c0-6.3-5.2-11.5-11.5-11.5
							S633.6-365.7,633.6-359.3z"/>
						<path class="st2" d="M724.1-359.3c0,11.8-9.6,21.3-21.3,21.3c-11.8,0-21.3-9.6-21.3-21.3c0-11.7,9.6-21.3,21.3-21.3
							S724.1-371.1,724.1-359.3z M691.2-359.3c0,6.4,5.2,11.5,11.5,11.5s11.5-5.2,11.5-11.5c0-6.3-5.2-11.5-11.5-11.5
							S691.2-365.7,691.2-359.3z"/>
						<path class="st2" d="M666.5-71.3c0,11.8-9.6,21.3-21.3,21.3c-11.8,0-21.3-9.6-21.3-21.3c0-11.8,9.6-21.3,21.3-21.3
							C656.9-92.6,666.5-83.1,666.5-71.3z M633.6-71.3c0,6.4,5.2,11.5,11.5,11.5s11.5-5.2,11.5-11.5s-5.2-11.5-11.5-11.5
							S633.6-77.7,633.6-71.3z"/>
						<path class="st2" d="M666.5-128.9c0,11.8-9.6,21.3-21.3,21.3c-11.8,0-21.3-9.6-21.3-21.3c0-11.8,9.6-21.3,21.3-21.3
							C656.9-150.2,666.5-140.7,666.5-128.9z M633.6-128.9c0,6.4,5.2,11.5,11.5,11.5s11.5-5.2,11.5-11.5s-5.2-11.5-11.5-11.5
							S633.6-135.3,633.6-128.9z"/>
						<path class="st2" d="M666.5-186.5c0,11.8-9.6,21.3-21.3,21.3c-11.8,0-21.3-9.6-21.3-21.3c0-11.8,9.6-21.3,21.3-21.3
							C656.9-207.8,666.5-198.3,666.5-186.5z M633.6-186.5c0,6.4,5.2,11.5,11.5,11.5s11.5-5.2,11.5-11.5s-5.2-11.5-11.5-11.5
							S633.6-192.9,633.6-186.5z"/>
						<path class="st2" d="M666.5-244.1c0,11.8-9.6,21.3-21.3,21.3c-11.8,0-21.3-9.6-21.3-21.3c0-11.8,9.6-21.3,21.3-21.3
							C656.9-265.4,666.5-255.9,666.5-244.1z M633.6-244.1c0,6.4,5.2,11.5,11.5,11.5s11.5-5.2,11.5-11.5s-5.2-11.5-11.5-11.5
							S633.6-250.5,633.6-244.1z"/>
						<path class="st2" d="M781.7-359.3c0,11.8-9.6,21.3-21.3,21.3s-21.3-9.6-21.3-21.3c0-11.7,9.6-21.3,21.3-21.3
							S781.7-371.1,781.7-359.3z M748.8-359.3c0,6.4,5.2,11.5,11.5,11.5s11.5-5.2,11.5-11.5c0-6.3-5.2-11.5-11.5-11.5
							S748.8-365.7,748.8-359.3z"/>
						<path class="st2" d="M724.1-71.3c0,11.8-9.6,21.3-21.3,21.3c-11.8,0-21.3-9.6-21.3-21.3c0-11.8,9.6-21.3,21.3-21.3
							S724.1-83.1,724.1-71.3z M691.2-71.3c0,6.4,5.2,11.5,11.5,11.5s11.5-5.2,11.5-11.5s-5.2-11.5-11.5-11.5S691.2-77.7,691.2-71.3
							z"/>
						<path class="st2" d="M724.1-128.9c0,11.8-9.6,21.3-21.3,21.3c-11.8,0-21.3-9.6-21.3-21.3c0-11.8,9.6-21.3,21.3-21.3
							C714.5-150.2,724.1-140.7,724.1-128.9z M691.2-128.9c0,6.4,5.2,11.5,11.5,11.5s11.5-5.2,11.5-11.5s-5.2-11.5-11.5-11.5
							S691.2-135.3,691.2-128.9z"/>
						<path class="st2" d="M724.1-186.5c0,11.8-9.6,21.3-21.3,21.3c-11.8,0-21.3-9.6-21.3-21.3c0-11.8,9.6-21.3,21.3-21.3
							C714.5-207.8,724.1-198.3,724.1-186.5z M691.2-186.5c0,6.4,5.2,11.5,11.5,11.5s11.5-5.2,11.5-11.5S709-198,702.7-198
							S691.2-192.9,691.2-186.5z"/>
						<path class="st2" d="M724.1-244.1c0,11.8-9.6,21.3-21.3,21.3c-11.8,0-21.3-9.6-21.3-21.3c0-11.8,9.6-21.3,21.3-21.3
							S724.1-255.9,724.1-244.1z M691.2-244.1c0,6.4,5.2,11.5,11.5,11.5s11.5-5.2,11.5-11.5s-5.2-11.5-11.5-11.5
							S691.2-250.5,691.2-244.1z"/>
						<path class="st2" d="M781.7-416.9c0,11.8-9.6,21.3-21.3,21.3s-21.3-9.6-21.3-21.3c0-11.7,9.6-21.3,21.3-21.3
							S781.7-428.7,781.7-416.9z M748.8-416.9c0,6.4,5.2,11.5,11.5,11.5s11.5-5.2,11.5-11.5c0-6.3-5.2-11.5-11.5-11.5
							S748.8-423.3,748.8-416.9z"/>
						<path class="st2" d="M781.7-301.7c0,11.8-9.6,21.3-21.3,21.3s-21.3-9.6-21.3-21.3c0-11.8,9.6-21.3,21.3-21.3
							S781.7-313.5,781.7-301.7z M748.8-301.7c0,6.4,5.2,11.5,11.5,11.5s11.5-5.2,11.5-11.5c0-6.3-5.2-11.5-11.5-11.5
							S748.8-308.1,748.8-301.7z"/>
						<path class="st2" d="M781.7-128.9c0,11.8-9.6,21.3-21.3,21.3s-21.3-9.6-21.3-21.3c0-11.8,9.6-21.3,21.3-21.3
							S781.7-140.7,781.7-128.9z M748.8-128.9c0,6.4,5.2,11.5,11.5,11.5s11.5-5.2,11.5-11.5s-5.2-11.5-11.5-11.5
							S748.8-135.3,748.8-128.9z"/>
						<path class="st2" d="M781.7-186.5c0,11.8-9.6,21.3-21.3,21.3s-21.3-9.6-21.3-21.3c0-11.8,9.6-21.3,21.3-21.3
							S781.7-198.3,781.7-186.5z M748.8-186.5c0,6.4,5.2,11.5,11.5,11.5s11.5-5.2,11.5-11.5s-5.2-11.5-11.5-11.5
							S748.8-192.9,748.8-186.5z"/>
						<path class="st2" d="M781.7-244.1c0,11.8-9.6,21.3-21.3,21.3s-21.3-9.6-21.3-21.3c0-11.8,9.6-21.3,21.3-21.3
							S781.7-255.9,781.7-244.1z M748.8-244.1c0,6.4,5.2,11.5,11.5,11.5s11.5-5.2,11.5-11.5s-5.2-11.5-11.5-11.5
							S748.8-250.5,748.8-244.1z"/>
						<path class="st2" d="M839.3-416.9c0,11.8-9.6,21.3-21.3,21.3s-21.3-9.6-21.3-21.3c0-11.7,9.6-21.3,21.3-21.3
							S839.3-428.7,839.3-416.9z M806.4-416.9c0,6.4,5.2,11.5,11.5,11.5s11.5-5.2,11.5-11.5c0-6.3-5.2-11.5-11.5-11.5
							S806.4-423.3,806.4-416.9z"/>
						<path class="st2" d="M839.3-359.3c0,11.8-9.6,21.3-21.3,21.3s-21.3-9.6-21.3-21.3c0-11.7,9.6-21.3,21.3-21.3
							S839.3-371.1,839.3-359.3z M806.4-359.3c0,6.4,5.2,11.5,11.5,11.5s11.5-5.2,11.5-11.5c0-6.3-5.2-11.5-11.5-11.5
							S806.4-365.7,806.4-359.3z"/>
						<path class="st2" d="M839.3-186.5c0,11.8-9.6,21.3-21.3,21.3s-21.3-9.6-21.3-21.3c0-11.8,9.6-21.3,21.3-21.3
							S839.3-198.3,839.3-186.5z M806.4-186.5c0,6.4,5.2,11.5,11.5,11.5s11.5-5.2,11.5-11.5s-5.2-11.5-11.5-11.5
							S806.4-192.9,806.4-186.5z"/>
						<path class="st2" d="M839.3-301.7c0,11.8-9.6,21.3-21.3,21.3s-21.3-9.6-21.3-21.3c0-11.8,9.6-21.3,21.3-21.3
							S839.3-313.5,839.3-301.7z M806.4-301.7c0,6.4,5.2,11.5,11.5,11.5s11.5-5.2,11.5-11.5c0-6.3-5.2-11.5-11.5-11.5
							S806.4-308.1,806.4-301.7z"/>
						<path class="st2" d="M839.3-128.9c0,11.8-9.6,21.3-21.3,21.3s-21.3-9.6-21.3-21.3c0-11.8,9.6-21.3,21.3-21.3
							S839.3-140.7,839.3-128.9z M806.4-128.9c0,6.4,5.2,11.5,11.5,11.5s11.5-5.2,11.5-11.5s-5.2-11.5-11.5-11.5
							S806.4-135.3,806.4-128.9z"/>
						<path class="st2" d="M839.3-244.1c0,11.8-9.6,21.3-21.3,21.3s-21.3-9.6-21.3-21.3c0-11.8,9.6-21.3,21.3-21.3
							S839.3-255.9,839.3-244.1z M806.4-244.1c0,6.4,5.2,11.5,11.5,11.5s11.5-5.2,11.5-11.5s-5.2-11.5-11.5-11.5
							S806.4-250.5,806.4-244.1z"/>
						<path class="st2" d="M781.7-474.5c0,11.8-9.6,21.3-21.3,21.3s-21.3-9.6-21.3-21.3c0-11.7,9.6-21.3,21.3-21.3
							S781.7-486.3,781.7-474.5z M748.8-474.5c0,6.4,5.2,11.5,11.5,11.5s11.5-5.2,11.5-11.5c0-6.3-5.2-11.5-11.5-11.5
							S748.8-480.9,748.8-474.5z"/>
						<path class="st2" d="M896.9-359.3c0,11.8-9.6,21.3-21.3,21.3s-21.3-9.6-21.3-21.3c0-11.7,9.6-21.3,21.3-21.3
							S896.9-371.1,896.9-359.3z M864.1-359.3c0,6.4,5.2,11.5,11.5,11.5s11.5-5.2,11.5-11.5c0-6.3-5.2-11.5-11.5-11.5
							S864.1-365.7,864.1-359.3z"/>
						<path class="st2" d="M781.7-71.3c0,11.8-9.6,21.3-21.3,21.3s-21.3-9.6-21.3-21.3c0-11.8,9.6-21.3,21.3-21.3
							S781.7-83.1,781.7-71.3z M748.8-71.3c0,6.4,5.2,11.5,11.5,11.5s11.5-5.2,11.5-11.5s-5.2-11.5-11.5-11.5S748.8-77.7,748.8-71.3
							z"/>
						<path class="st2" d="M896.9-301.7c0,11.8-9.6,21.3-21.3,21.3s-21.3-9.6-21.3-21.3c0-11.8,9.6-21.3,21.3-21.3
							S896.9-313.5,896.9-301.7z M864.1-301.7c0,6.4,5.2,11.5,11.5,11.5s11.5-5.2,11.5-11.5c0-6.3-5.2-11.5-11.5-11.5
							S864.1-308.1,864.1-301.7z"/>
						<path class="st2" d="M896.9-244.1c0,11.8-9.6,21.3-21.3,21.3s-21.3-9.6-21.3-21.3c0-11.8,9.6-21.3,21.3-21.3
							S896.9-255.9,896.9-244.1z M864.1-244.1c0,6.4,5.2,11.5,11.5,11.5s11.5-5.2,11.5-11.5s-5.2-11.5-11.5-11.5
							S864.1-250.5,864.1-244.1z"/>
						<path class="st2" d="M896.9-186.5c0,11.8-9.6,21.3-21.3,21.3s-21.3-9.6-21.3-21.3c0-11.8,9.6-21.3,21.3-21.3
							S896.9-198.3,896.9-186.5z M864.1-186.5c0,6.4,5.2,11.5,11.5,11.5s11.5-5.2,11.5-11.5s-5.2-11.5-11.5-11.5
							S864.1-192.9,864.1-186.5z"/>
						<path class="st2" d="M528.2-474.5c0,11.8-9.6,21.3-21.3,21.3c-11.7,0-21.3-9.6-21.3-21.3c0-11.7,9.6-21.3,21.3-21.3
							S528.2-486.3,528.2-474.5z M495.4-474.5c0,6.4,5.2,11.5,11.5,11.5c6.3,0,11.5-5.2,11.5-11.5c0-6.3-5.2-11.5-11.5-11.5
							C500.6-486,495.4-480.9,495.4-474.5z"/>
						<path class="st2" d="M528.2-128.9c0,11.8-9.6,21.3-21.3,21.3c-11.7,0-21.3-9.6-21.3-21.3c0-11.8,9.6-21.3,21.3-21.3
							S528.2-140.7,528.2-128.9z M495.4-128.9c0,6.4,5.2,11.5,11.5,11.5c6.3,0,11.5-5.2,11.5-11.5s-5.2-11.5-11.5-11.5
							C500.6-140.4,495.4-135.3,495.4-128.9z"/>
						<path class="st2" d="M470.6-71.3c0,11.8-9.6,21.3-21.3,21.3S428-59.6,428-71.3c0-11.8,9.6-21.3,21.3-21.3
							S470.6-83.1,470.6-71.3z M437.8-71.3c0,6.4,5.2,11.5,11.5,11.5s11.5-5.2,11.5-11.5s-5.2-11.5-11.5-11.5S437.8-77.7,437.8-71.3
							z"/>
						<path class="st2" d="M528.2-71.3c0,11.8-9.6,21.3-21.3,21.3c-11.7,0-21.3-9.6-21.3-21.3c0-11.8,9.6-21.3,21.3-21.3
							S528.2-83.1,528.2-71.3z M495.4-71.3c0,6.4,5.2,11.5,11.5,11.5c6.3,0,11.5-5.2,11.5-11.5s-5.2-11.5-11.5-11.5
							C500.6-82.8,495.4-77.7,495.4-71.3z"/>
						<g>
							
								<rect x="-43.1" y="-448.2" transform="matrix(2.535182e-06 1 -1 2.535182e-06 -178.5898 -362.9338)" class="st3" width="270.5" height="354.9"/>
							
								<rect x="-84.5" y="-373.5" transform="matrix(2.535182e-06 1 -1 2.535182e-06 -371.033 -296.334)" class="st4" width="94.4" height="79.6"/>
							
								<rect x="-103.9" y="-354" transform="matrix(2.535182e-06 1 -1 2.535182e-06 -400.799 -276.9439)" class="st5" width="84" height="30.3"/>
							<polygon class="st6" points="-46.7,-336.8 -63.7,-336.8 -63.7,-354.9 -77.1,-354.9 -77.1,-296.8 -63.7,-296.8 -46.7,-296.8 
								-46.7,-307.9 							"/>
							<polygon class="st6" points="-56.3,-380.8 -60,-380.8 -77.1,-380.8 -77.1,-358.6 -60,-358.6 -60,-340.5 -46.7,-340.5 
								-46.7,-380.8 							"/>
							<g>
								<g>
									<path class="st7" d="M133.5-389.3c39.2,0,78.1,0,117.3,0c0.7,0,1.1,0,1.1,1.1c0,78.1,0,156.2,0,234.2
										c0,1.1-0.4,1.1-1.1,1.1c-78.1,0-156.2,0-234.6,0c-0.7,0-1.1,0-1.1-1.1c0-78.1,0-156.2,0-234.2c0-0.7,0.4-1.1,1.1-1.1
										C55-389.3,94.3-389.3,133.5-389.3z"/>
									<g>
										<path class="st8" d="M25.5-167.1c0,4.4,3.6,8,8,8h200c4.4,0,8-3.6,8-8v-208c0-4.4-3.6-8-8-8h-200c-4.4,0-8,3.6-8,8
											L25.5-167.1z"/>
									</g>
									<g>
										<path d="M220-282.7c-0.2,1.1,0.4,2,0.9,2.7c0.7,0.9,1.1,1.8,1.6,2.9c0.2,0.4,0.4,0.4,0.7,0.4c2-0.4,3.5,0.4,4.4,2.2
											c2,4,4,8,5.1,12.4c0.4,1.3,0.2,2.6-1.1,3.5c-1.8,1.5-4,2.7-6.2,3.7c-1.1,0.4-1.8,0.9-2.6,1.8c-1.1,1.3-2.6,2-4,2.4
											c-4.6,1.3-9.3,2.5-14,3.3c-1.3,0.2-2.4,0.4-3.7,0.4c-2,0.2-3.1-0.5-3.8-2.4c-0.5-1.3-0.7-2.4-0.9-3.6
											c-0.2-1.3-0.6-2.2-1.8-2.8c-2-0.7-2.9-2.4-3.3-4.5c-0.4-1.6,0.2-3.1,0.7-4.4c0.5-1.5,0.9-2.9,0.4-4.6
											c-0.4-1.5-0.2-2.7,0.4-4c0.6-1.3,1.1-2.6,1.6-4c0.4-1.1,0.4-2,0.2-3.1c-0.4-2.4,0.6-6,3.3-7.5c1.5-0.7,2.7-1.6,4.2-2.4
											c0.7-0.4,1.5-0.4,2.4,0s1.6,0.9,2.4,1.4c0.6,0.4,1.1,0.4,1.5,0.2c3.1-0.5,6,0,8.9,1.3c2,0.9,2.9,2.4,2.9,4.4
											C220-283.1,220-282.9,220-282.7z M206.7-257.4c0.5-0.9,1.3-1.5,2.2-1.8c3.5-1.3,7.1-2.7,10.6-4.2c1.8-0.7,2.9-2.5,2.5-4.6
											c-0.2-0.7-0.4-1.3-0.5-2c-0.2-0.7-0.6-0.9-1.5-0.9c-0.7,0-1.5,0.2-2.2,0.4c-4.6,1.3-9.3,2.4-14.1,3.5
											c-0.2,0-0.4,0.2-0.4,0c0-0.2,0.2-0.2,0.2-0.4c1.1-0.5,2.2-1.1,3.5-1.5c1.8-0.6,3.8-1.1,5.7-1.5c2.2-0.6,4.4-1.3,6.6-2.2
											c1.1-0.4,1.5-1.1,1.5-2s-0.2-2-0.5-2.9c-0.4-1.5-1.5-2.2-2.9-2.2c-1.6,0.2-3.3,0.4-4.9,0.6c-2,0.2-4,0.5-6,0.7
											c-0.2,0-0.4,0.2-0.4-0.2s0.2-0.2,0.4-0.4c1.6-0.4,3.3-0.7,4.9-0.9c1.8-0.2,3.5-0.5,5.3-0.7c1.1-0.2,1.6-0.7,1.6-1.8
											c0.2-1.5-0.5-3.1-2-3.8c-0.5-0.2-0.9-0.4-1.5-0.6c-1.6-0.5-3.5-0.5-5.1-0.7c-0.6,0-1.1,0-1.6,0.4
											c-0.7,0.4-1.4,0.7-2.2,1.1c-0.2,0.2-0.6,0.2-0.9,0.2c0.4-0.4,0.9-0.7,1.3-1.1c0.2-0.2,0.4-0.2,0.4-0.4
											c0-0.2-0.4-0.2-0.6-0.2c-0.9,0-1.6,0.2-2.6,0c0.4-0.1,0.7-0.4,0.9-0.5c-0.4-0.4-0.9-0.4-1.3-0.6c0.2,0,0.4-0.2,0.6-0.2
											c0.2,0,0.2,0,0.2-0.2c0-0.2-0.2-0.2-0.2,0c-0.7,0.2-1.5,0.2-2,0.5c-0.9,0.6-1.8,1.1-2.9,1.6c-1.1,0.6-1.6,1.5-2,2.6
											c-0.2,0.7-0.5,1.6-0.7,2.4c0,0.2,0,0.4,0,0.6c0.4,1.3,0.7,2.7,2.2,3.4c-0.2,0.2-0.4,0.2-0.5,0.2c-0.9,0.2-1.6,0.6-2,1.3
											c-0.5,1.3-1.1,2.5-1.6,3.9c-0.9,2.2,0.2,4.4,2.6,5.1c0.5,0.2,1.1,0.2,1.6,0.4c-1.6,0.5-3.3,0.4-4.4,2
											c-0.9,1.5-1.5,2.9-1.1,4.6c0.2,1.5,1.1,2.5,2.4,3.1s2.5,0.9,4,0.7c-0.5,0.7-0.9,1.3-1.1,2c-0.4,1.8,0,3.5,0.7,5.1
											c0.4,0.7,0.9,0.9,1.6,0.9c0.9,0,2,0,2.9-0.2c5.1-0.9,10.2-1.8,15-3.7c1.1-0.4,2.2-0.5,2.9-1.3c1.8-1.6,2.4-3.8,1.6-6.2
											c-0.5-1.8-1.6-2.5-3.5-2c-0.4,0-0.5,0.2-0.9,0.2c-2.4,0.9-4.8,1.8-7.1,2.8C210.2-258.4,208.5-257.9,206.7-257.4z
											 M226.6-268.5c-0.2,0.6-0.5,0.7-0.9,0.7c-0.5,0.2-0.9,0.2-1.5,0c-0.4,0-0.5,0-0.5,0.4c-0.2,1.1-0.4,2-0.4,3.1
											c0,2.2,0.7,4.2,1.3,6c0.4,0.9,1.1,1.1,2,0.7c1.5-0.5,2.7-1.5,4.2-2.2c0.7-0.4,0.9-1.1,0.9-1.8c0-0.7-0.4-1.3-0.6-2
											c-0.7-2.4-1.6-4.8-2.9-7c-0.2,0.2-0.2,0.6-0.4,0.7c-0.4-1.3-0.9-2.6-1.3-3.8c-0.2-0.4-0.2-0.7-0.6-0.7
											c-0.7-0.4-1.6-0.4-2.4,0.2c-0.8,0.6-0.9,1.3-0.7,2.2c0.2,1,0.4,1.9,0.5,2.8c0.2,0.7,0.6,1.1,1.3,0.9
											C225.3-268.3,226.1-268.3,226.6-268.5z"/>
										<g>
											<path d="M225.7-358.7c1,7.1-3.7,13.7-10.4,15.2v-11.6h-5.9v11.7c-6.9-1.5-11.7-8.1-10.7-15.3h-5.9
												c-1.1,11.3,7.9,21.4,19.4,21.4s20.5-10.1,19.4-21.4H225.7z"/>
											<path d="M198.7-325.7c-1.2,8.2,5.2,15.7,13.6,15.7c8.3,0,14.8-7.5,13.6-15.7h5.9c1.2,11.4-8,21.5-19.5,21.5
												c-11.6,0-20.7-10.1-19.5-21.5H198.7L198.7-325.7z"/>
										</g>
										<g>
											<path d="M221.1-228.6c7.2,5,9,15,4,22.2s-15,8.9-22.2,4c-3.5-2.4-5.8-6.1-6.6-10.3c-0.7-4.2,0.2-8.4,2.6-11.9
												c1-1.5,2.3-2.7,3.7-3.8l-2.4-3.3c-1.8,1.3-3.4,2.9-4.6,4.7c-3,4.4-4.2,9.7-3.3,14.9c0.9,5.2,3.9,9.8,8.2,12.8
												c2.8,2,6,3.2,9.4,3.5v8.1h-13.4v-9.9l-4-3v17h38.7l-2.7-4H214v-8.1c0.5-0.1,1-0.1,1.5-0.2c5.2-1,9.8-3.9,12.9-8.3
												c2.4-3.5,3.6-7.5,3.6-11.4c0-6.3-3-12.5-8.5-16.4L221.1-228.6z"/>
											<path d="M204.8-214.2c-0.3-1.9,0.1-3.9,1.2-5.5c0.5-0.7,1.1-1.3,1.7-1.7l-2.4-3.3c-1,0.7-1.9,1.7-2.6,2.7
												c-3.6,5.2-2.3,12.3,2.8,15.9c2.5,1.7,5.5,2.4,8.5,1.9s5.6-2.2,7.3-4.7c1.4-2,2-4.3,2-6.5c0-3.6-1.7-7.2-4.9-9.3l-2.3,3.3
												c3.3,2.3,4.1,6.9,1.8,10.2c-1.1,1.6-2.8,2.7-4.7,3s-3.9-0.1-5.5-1.2C206.2-210.6,205.1-212.3,204.8-214.2z"/>
										</g>
									</g>
									<g>
										<g>
											<g>
												<g>
													<g>
														<path d="M127.2-224c2.7,0,5.1,0.5,7.3,1.5s4.2,2.5,5.8,4.4c1.6,2,2.8,4.3,3.8,7.1c0.9,2.8,1.3,6,1.3,9.6v23.5v6.5
															h-5.1c-1.5,0-2.4-0.7-2.7-2.1c0-0.1,0-0.4-0.1-0.5c-0.1-0.2-0.1-0.6-0.3-1.2c-0.1-0.6-0.3-1.5-0.4-2.6h-45
															c-0.2,1.1-0.4,2-0.4,2.6c-0.1,0.6-0.2,1.1-0.3,1.2c0,0.3-0.1,0.5-0.1,0.5c-0.3,1.4-1.2,2.1-2.7,2.1h-5.1v-6.5v-21.4
															c0-4.1,0.4-7.5,1.2-10.4c0.8-2.8,1.9-5.2,3.3-7.1c1.4-1.8,3.2-3.2,5.2-4.1s4.4-1.2,6.8-1.2c1.4,0,2.8,0.2,4.2,0.6
															c1.3,0.4,2.6,1.1,3.7,2c1.2,0.9,2.2,2,3.2,3.5c1,1.3,1.8,3,2.4,5C115.3-219.7,119.9-224,127.2-224 M110.2-189.5v-9.2
															c0-3.9-0.7-6.9-2.1-9s-3.7-3.1-6.8-3.1c-3.2,0-5.5,0.9-6.9,2.8s-2,4.7-2,8.6v10L110.2-189.5z M126.9-212.6
															c-1.3,0-2.6,0.2-3.6,0.6c-1.1,0.5-2,1.2-2.8,2.1s-1.3,2.2-1.8,3.6c-0.4,1.4-0.6,3.2-0.6,5.2v11.5h18.3v-11.7
															c0-2.1-0.3-3.9-0.8-5.4s-1.2-2.6-2-3.5c-0.9-0.9-1.9-1.5-3-1.8S128.3-212.6,126.9-212.6"/>
														<path d="M102.1-258.1c0.9-2.3,2.2-4.4,3.9-6.1s3.8-3,6.3-3.9c2.5-1,5.3-1.4,8.5-1.4c0.8,0,1.4,0.1,2,0.1
															c0.5,0.1,1,0.2,1.2,0.4c0.3,0.2,0.5,0.5,0.6,0.7c0.1,0.4,0.2,0.7,0.2,1.3v27.2c4.5-0.4,7.8-1.5,9.9-3.6
															c2.1-2.1,3.2-4.9,3.2-8.4c0-1.7-0.2-3.2-0.6-4.4c-0.4-1.2-0.8-2.3-1.3-3.3c-0.4-0.9-0.9-1.7-1.3-2.4
															c-0.4-0.7-0.6-1.4-0.6-2c0-0.5,0.1-0.8,0.3-1.1c0.2-0.4,0.4-0.6,0.7-0.8l3.8-3.1c1.4,1.2,2.6,2.5,3.5,3.9
															c1,1.5,1.7,3,2.2,4.6s1,3.2,1.2,4.9c0.3,1.6,0.4,3.2,0.4,4.8c0,3-0.5,5.9-1.5,8.5c-1,2.7-2.5,4.9-4.5,6.8
															c-2,2-4.4,3.5-7.4,4.6c-2.9,1.2-6.3,1.7-10.2,1.7c-3,0-5.9-0.4-8.5-1.4c-2.7-1-5-2.4-6.9-4.2c-2-1.8-3.6-4.1-4.6-6.7
															c-1.2-2.7-1.7-5.6-1.7-8.9C100.7-253.2,101.2-255.7,102.1-258.1 M111-243.3c1.8,1.8,4.3,2.8,7.5,3.4v-19.9
															c-1.3,0-2.7,0.2-3.9,0.5c-1.2,0.3-2.3,1-3.2,1.7c-0.9,0.8-1.6,1.8-2.1,2.9c-0.5,1.2-0.8,2.5-0.8,4.1
															C108.3-247.5,109.2-245.1,111-243.3"/>
														<path d="M140.4-316.1h5.1v5.3v1.2v3.6c0,1-0.2,1.8-0.4,2.4c-0.3,0.5-0.9,1-1.9,1.2l-3.1,1c1,1.2,1.9,2.2,2.7,3.3
															s1.4,2.2,2,3.3c0.5,1.2,0.9,2.4,1.2,3.6c0.3,1.3,0.3,2.8,0.3,4.3c0,1.8-0.3,3.5-0.7,5.2c-0.5,1.6-1.2,2.9-2.2,4.1
															s-2.3,2-3.7,2.7c-1.5,0.6-3.2,1-5.2,1c-1.7,0-3.3-0.5-5-1.3c-1.6-0.9-3.1-2.3-4.4-4.4s-2.4-4.7-3.3-8.1
															c-0.9-3.4-1.3-7.5-1.3-12.6h-2.6c-3,0-5.2,0.6-6.6,1.9c-1.4,1.2-2.1,3-2.1,5.4c0,1.7,0.2,3.1,0.6,4.3
															c0.4,1.2,0.9,2.1,1.3,3c0.4,0.8,1,1.6,1.3,2.3c0.4,0.7,0.6,1.5,0.6,2.4c0,0.7-0.2,1.3-0.5,1.9
															c-0.4,0.5-0.8,0.9-1.3,1.2l-3.4,1.9c-4.6-5.1-6.9-11.2-6.9-18.4c0-2.6,0.4-4.9,1.2-6.9c0.9-2,2-3.7,3.6-5.2
															s3.3-2.5,5.4-3.2c2.1-0.7,4.3-1.1,6.8-1.1h19.5c0.2-1,0.3-1.8,0.4-2.3c0.1-0.5,0.2-0.8,0.2-0.9
															C138-315.4,138.8-316.1,140.4-316.1 M126.7-300.4c0,3.1,0.2,5.7,0.6,7.7s0.9,3.7,1.5,5c0.6,1.2,1.3,2.1,2.1,2.7
															c0.8,0.5,1.7,0.8,2.7,0.8c1.9,0,3.2-0.5,4-1.7c0.8-1.1,1.2-2.6,1.2-4.4c0-1.1-0.1-2.2-0.3-3c-0.2-0.9-0.4-1.8-0.9-2.6
															c-0.4-0.8-0.9-1.6-1.5-2.4c-0.5-0.7-1.2-1.5-2-2.3h-7.5L126.7-300.4z"/>
														<path d="M140.4-370.7h5.1v6.5v10.6h-28.1c-2.7,0-4.8,0.6-6.2,1.8c-1.5,1.2-2.2,3.1-2.2,5.6c0,1.9,0.4,3.5,1.2,5.2
															c0.8,1.6,2,3.1,3.4,4.5H137c0.2-1.1,0.4-2,0.4-2.5c0.1-0.6,0.2-1.1,0.3-1.2c0-0.3,0.1-0.5,0.1-0.5
															c0.3-1.4,1.2-2.1,2.7-2.1h5.1v6.5v10.6v6.5h-5.1c-1.5,0-2.4-0.7-2.7-2.2c0-0.1-0.1-0.3-0.1-0.5
															c-0.1-0.3-0.2-0.6-0.3-1.2s-0.3-1.5-0.4-2.6h-27.1c-0.2,1-0.4,1.9-0.4,2.6c-0.1,0.6-0.2,1.1-0.3,1.2
															c-0.1,0.2-0.1,0.4-0.1,0.5c-0.3,1.4-1.2,2.2-2.7,2.2h-5.1v-6.5v-6.5c0-1.3,0.6-2.3,2-2.7l3.5-0.7
															c-0.9-0.9-1.8-1.9-2.5-2.8c-0.7-1-1.4-2-2-3.1c-0.5-1.1-1-2.3-1.2-3.6c-0.3-1.2-0.4-2.7-0.4-4.1
															c0-2.4,0.4-4.5,1.2-6.4c0.8-1.9,2-3.4,3.5-4.6s3.2-2.2,5.2-2.8s4.3-1,6.8-1h19.5c0.2-1.1,0.4-1.9,0.4-2.6
															c0.1-0.6,0.2-1.1,0.3-1.2c0-0.3,0.1-0.4,0.1-0.5C138-370,138.9-370.7,140.4-370.7"/>
														<path d="M91.6-244v0.6v0.3v11.8v2.1h-1.3c-0.3,0-0.5-0.2-0.5-0.4c-0.1-0.3-0.4-1.7-0.4-1.7H72.5c0,0-0.3,1.4-0.4,1.7
															c0,0.3-0.3,0.4-0.5,0.4h-1.2v-2.1v-2.8l0,0v-2.1h1.2c0.3,0,0.5,0.2,0.5,0.4c0.1,0.3,0.4,1.6,0.4,1.7h16.6v-7.6
															c-0.9-0.1-1.6-0.2-1.7-0.2c-0.3-0.1-0.5-0.3-0.5-0.6v-1.4L91.6-244L91.6-244z"/>
														<path d="M90.3-252.9h1.2v6.8h-1.2c-0.3,0-0.5-0.2-0.5-0.5c-0.1-0.3-0.4-1.7-0.4-1.7H78.7c0,0-0.3,1.4-0.4,1.7
															c0,0.3-0.3,0.5-0.5,0.5h-1.2v-4.8h12.8c0,0,0.3-1.4,0.4-1.7C89.8-252.7,90-252.9,90.3-252.9 M72.6-247.8
															c-0.3,0.1-0.4,0.2-0.7,0.2c-0.3,0-0.5-0.1-0.7-0.2c-0.3-0.1-0.4-0.2-0.6-0.4c-0.2-0.2-0.3-0.4-0.4-0.6
															s-0.2-0.4-0.2-0.7c0-0.3,0.1-0.5,0.2-0.7c0.1-0.3,0.3-0.4,0.4-0.6c0.2-0.2,0.4-0.3,0.6-0.4c0.2,0,0.4-0.1,0.7-0.1
															c0.3,0,0.5,0.1,0.7,0.2s0.4,0.3,0.6,0.5s0.4,0.3,0.4,0.6c0.1,0.3,0.2,0.5,0.2,0.7c0,0.3-0.1,0.5-0.2,0.7
															c-0.1,0.3-0.3,0.5-0.4,0.6C73-248,72.8-247.8,72.6-247.8"/>
														<path d="M76.5-262.3c0.2-0.5,0.4-1.1,0.6-1.6v-4.1h1c0.4,0,0.5,0.2,0.6,0.6l0.3,1.7c0.6-0.4,1.3-0.5,2.1-0.5
															c0.7,0,1.4,0.2,2,0.4c0.6,0.3,1.1,0.7,1.5,1.2s0.7,1.1,1,1.8c0.3,0.7,0.4,1.4,0.4,2.2c0,0.7-0.1,1.3-0.3,2
															c0.2,0.4,0.4,0.5,0.6,0.7s0.5,0.4,0.8,0.4c0.4,0,0.6-0.2,0.8-0.4c0.2-0.3,0.4-0.6,0.4-1.2c0.1-0.4,0.1-1,0.2-1.6
															c0-0.6,0.1-1.2,0.1-1.8s0.1-1.2,0.3-1.9c0.1-0.6,0.3-1.2,0.5-1.6c0.3-0.4,0.6-0.8,1-1.2c0.4-0.3,1-0.4,1.7-0.4
															c0.6,0,1.2,0.2,1.9,0.4c0.6,0.4,1.2,0.8,1.6,1.4c0.4,0.6,0.9,1.3,1.2,2.2c0.3,0.9,0.4,1.8,0.4,2.9s-0.1,2.1-0.4,2.8
															c-0.3,0.8-0.5,1.5-0.9,2s-0.8,1-1.2,1.2c-0.4,0.3-1,0.4-1.5,0.4c-0.7,0-1.3-0.3-1.9-0.7c-0.5-0.5-0.9-1.2-1.2-2
															c-0.2,0.4-0.4,0.8-0.8,1c-0.4,0.3-0.8,0.3-1.3,0.3c-0.2,0-0.4-0.1-0.7-0.1c-0.3-0.1-0.4-0.2-0.7-0.4s-0.4-0.4-0.6-0.6
															c-0.2-0.3-0.4-0.5-0.5-0.8c-0.4,0.7-1,1.3-1.7,1.8c-0.7,0.4-1.5,0.6-2.4,0.6c-0.7,0-1.4-0.2-2-0.5s-1.1-0.7-1.5-1.2
															s-0.7-1.1-1-1.8c-0.3-0.7-0.4-1.4-0.4-2.3C76.3-261.2,76.4-261.8,76.5-262.3 M91.5-264.9c-0.3,0.2-0.4,0.4-0.5,0.8
															c-0.1,0.4-0.2,0.8-0.3,1.2c-0.1,0.4-0.1,1-0.1,1.5s-0.1,1.1-0.1,1.6s-0.1,1.1-0.2,1.5c0.3,0.5,0.6,1,1,1.3
															c0.4,0.4,0.8,0.5,1.4,0.5c0.4,0,0.6-0.1,1-0.3c0.3-0.2,0.5-0.5,0.8-0.8c0.2-0.4,0.4-0.8,0.5-1.3s0.2-1.2,0.2-1.8
															c0-0.7-0.1-1.3-0.2-2c-0.1-0.5-0.3-1.1-0.5-1.4c-0.3-0.4-0.5-0.7-0.8-0.9c-0.4-0.2-0.7-0.3-1.1-0.3
															C92-265.2,91.7-265.1,91.5-264.9 M84-262c-0.2-0.5-0.4-0.8-0.6-1.1c-0.3-0.3-0.6-0.5-1-0.6c-0.4-0.2-0.8-0.2-1.2-0.2
															c-0.9,0-1.7,0.3-2.2,0.8s-0.8,1.3-0.8,2.4s0.3,1.8,0.8,2.4c0.5,0.5,1.2,0.8,2.2,0.8c0.4,0,0.9-0.1,1.2-0.2
															c0.4-0.2,0.7-0.4,1-0.6c0.3-0.3,0.4-0.6,0.6-1.1s0.2-0.9,0.2-1.4C84.2-261.1,84.1-261.5,84-262"/>
														<path d="M76.3-279.4c0-1.6,0.5-2.8,1.6-3.8c1-0.9,2.4-1.2,4.1-1.2h7.4c0.2-1,0.3-1.5,0.4-1.7c0.1-0.3,0.3-0.5,0.5-0.5
															h1.2v4.8H82c-2.4,0-3.6,1.1-3.6,3.2c0,1.4,0.7,2.8,2.1,4.1h8.9l0.1-0.4c0.2-0.8,0.3-1.2,0.3-1.3
															c0.1-0.2,0.3-0.4,0.5-0.4h1.3v6.9h-1.3c-0.4,0-0.4-0.2-0.5-0.4l-0.4-1.7H71.9c-0.2,1.2-0.3,1.8-0.4,1.9
															c-0.1,0.3-0.3,0.5-0.5,0.5h-1.2v-5.1h8.8C77.1-275.9,76.3-277.5,76.3-279.4"/>
														<path d="M90.8-291c-0.6,0.6-1.6,1-2.8,1h-9.2v1.8c0,0.2-0.1,0.3-0.2,0.3c-0.1,0.1-0.3,0.2-0.4,0.2h-1.1l-0.4-2.5
															l-4.6-0.6c-0.2,0-0.3-0.1-0.4-0.2c-0.1-0.1-0.2-0.3-0.2-0.5v-1.3h5.2v-4.2h2v4.2h9c0.6,0,1.1-0.2,1.4-0.4
															c0.3-0.4,0.4-0.7,0.4-1.2c0-0.3,0-0.5-0.1-0.7c-0.1-0.2-0.2-0.3-0.3-0.5c-0.1-0.2-0.2-0.3-0.3-0.3
															c-0.1-0.1-0.1-0.2-0.1-0.3s0.1-0.3,0.3-0.4l1.2-0.8c0.4,0.5,0.8,1,1,1.6c0.3,0.6,0.4,1.3,0.4,1.9
															C91.8-292.5,91.5-291.6,90.8-291"/>
														<path d="M85.6-316.1c1.9,0,3.3,0.6,4.4,2c1.2,1.3,1.7,3.2,1.7,5.5v9.7h-1.3c-0.3,0-0.4-0.2-0.5-0.5l-0.4-1.7h-17
															c-0.2,1-0.3,1.5-0.4,1.7c-0.1,0.3-0.3,0.5-0.5,0.5h-1.2v-8.9c0-3.8,1.1-6.1,3.2-7c0.7-0.3,1.4-0.4,2-0.4
															c0.7,0,1.2,0.1,1.8,0.3c0.4,0.2,0.9,0.5,1.3,0.7c0.9,0.7,1.5,1.7,2,3C81.3-314.5,82.9-316.1,85.6-316.1 M79.9-304.1
															v-3.8c0-2.4-0.7-3.8-2.1-4.4c-0.4-0.2-1-0.3-1.5-0.3c-1.2,0-2.1,0.3-2.8,1.2c-0.6,0.7-0.9,2-0.9,3.5v3.9L79.9-304.1
															L79.9-304.1z M87-313c-0.4-0.2-1-0.3-1.5-0.3c-1.1,0-2,0.4-2.6,1.2c-0.6,0.8-1,1.9-1,3.5v4.6h7.4v-4.6
															C89.3-311,88.5-312.5,87-313"/>
														<path d="M90.3-324.6h1.2v6.9h-1.2c-0.4,0-0.4-0.2-0.5-0.5l-0.4-1.7H71.9c-0.2,0.9-0.3,1.5-0.3,1.6
															c-0.1,0.3-0.3,0.5-0.5,0.5h-1.3v-4.8h19.6c0.2-1,0.3-1.5,0.4-1.7C89.8-324.5,90-324.6,90.3-324.6"/>
														<path d="M87.6-337.7h-8.9c0,0.2-0.2,0.7-0.4,1.7c-0.1,0.2-0.3,0.4-0.5,0.4h-1.2v-2.2v-2.6h12.8c0.2-1,0.3-1.5,0.4-1.7
															c0.1-0.2,0.3-0.4,0.5-0.4h1.2v3.7c0,0.3-0.2,0.6-0.5,0.7l-1.6,0.2c1.6,1.4,2.4,3.1,2.4,5c0,1.6-0.5,2.8-1.6,3.7
															c-1,0.8-2.4,1.2-4.1,1.2h-7.4c-0.2,1-0.3,1.5-0.4,1.7c-0.1,0.3-0.3,0.5-0.5,0.5h-1.2v-4.8h9.6c1.2,0,2-0.3,2.7-0.8
															c0.6-0.5,0.9-1.3,0.9-2.4C89.7-335.1,89-336.5,87.6-337.7"/>
														<path d="M76.8-353.4c0.3-0.8,0.7-1.4,1.3-1.9c0.5-0.5,1.2-1,2.1-1.3c0.8-0.3,1.8-0.5,2.8-0.5c0.4,0,0.7,0.1,0.8,0.1
															c0.2,0.1,0.2,0.3,0.2,0.5v9.9c1,0,1.8-0.2,2.5-0.4c0.7-0.3,1.3-0.5,1.8-1c0.4-0.4,0.8-0.9,1.1-1.5
															c0.3-0.5,0.4-1.2,0.4-1.9c0-0.6-0.1-1.2-0.3-1.7c-0.2-0.5-0.4-0.9-0.5-1.2c-0.2-0.3-0.4-0.6-0.4-0.9
															c-0.2-0.3-0.3-0.4-0.3-0.6s0.1-0.3,0.3-0.5l1-0.7c0.4,0.4,0.7,0.7,1.1,1.2c0.3,0.4,0.5,0.9,0.7,1.4s0.4,1.1,0.4,1.6
															c0.1,0.5,0.2,1.1,0.2,1.7c0,1.1-0.2,2-0.5,2.9c-0.4,0.8-0.9,1.6-1.5,2.3c-0.7,0.6-1.5,1.1-2.5,1.5
															c-1,0.3-2.1,0.5-3.5,0.5c-1.1,0-2-0.2-2.9-0.5c-0.9-0.3-1.7-0.8-2.4-1.4c-0.6-0.6-1.2-1.3-1.6-2.2s-0.5-1.8-0.5-2.9
															C76.3-351.8,76.5-352.7,76.8-353.4 M79.3-348c0.7,0.7,1.8,1.2,3,1.3v-8.2c-0.6,0-1.2,0.1-1.7,0.3
															c-0.5,0.2-1,0.4-1.3,0.7c-0.4,0.3-0.6,0.7-0.9,1.2c-0.2,0.5-0.3,1-0.3,1.6C78.3-349.8,78.6-348.7,79.3-348"/>
														<path d="M70.9-362.8l4.3-2.4c0.2-0.1,0.2-0.2,0.2-0.4v-0.1c0-0.2-0.1-0.3-0.2-0.3l-4.3-2.3c0.2,0,0.3,0,0.4,0h4.4
															c0.1,0.3,0.1,0.5,0.1,0.6s0.1,0.2,0.2,0.2h0.4v-2.3H76c-0.1,0-0.2,0.1-0.2,0.2s-0.1,0.2-0.1,0.5h-5.5
															c0,0,0-0.2-0.1-0.5c0-0.1-0.1-0.2-0.2-0.2h-0.4v1.3c0,0.1,0,0.2,0,0.2l0.1,0.1l4.2,2.3c0.2,0.1,0.4,0.2,0.5,0.2
															c-0.3,0.1-0.4,0.2-0.5,0.2l-4.2,2.4l-0.1,0.1c0,0,0,0.1,0,0.2v1.3h0.4c0.1,0,0.2-0.1,0.2-0.2s0.1-0.3,0.1-0.5h5.4
															l0.1,0.5c0,0.1,0.1,0.2,0.2,0.2h0.4v-2.3h-0.4c-0.1,0-0.2,0-0.2,0.1s-0.1,0.3-0.1,0.6h-4.3
															C71.2-362.8,71-362.8,70.9-362.8z M69.5-360.8v0.4v5.2H71v-0.5c0-0.1,0-0.2-0.1-0.2s-0.3,0-0.6-0.1v-1.6h5.3
															c0.1,0.3,0.1,0.4,0.1,0.5s0.1,0.2,0.2,0.2h0.4v-2.3h-0.4c-0.1,0-0.2,0-0.2,0.1s-0.1,0.3-0.1,0.5v0.1h-5.3v-1.6
															c0.4,0,0.5-0.1,0.6-0.1s0.1-0.1,0.1-0.2v-0.4H69.5L69.5-360.8z"/>
													</g>
												</g>
											</g>
										</g>
									</g>
								</g>
							</g>
							
								<rect x="-75.6" y="-298.3" transform="matrix(2.535182e-06 1 -1 2.535182e-06 -362.0909 -221.2283)" class="st9" width="10.4" height="13.3"/>
							
								<rect x="241.1" y="-379.8" transform="matrix(2.535182e-06 1 -1 2.535182e-06 -121.8504 -630.493)" class="st7" width="26.4" height="7.2"/>
							
								<rect x="241.2" y="-169.7" transform="matrix(2.535182e-06 1 -1 2.535182e-06 88.2291 -420.494)" class="st7" width="26.4" height="7.2"/>
							
								<rect x="-58.6" y="-298.3" transform="matrix(2.535182e-06 1 -1 2.535182e-06 -345.0911 -238.2602)" class="st9" width="10.4" height="13.3"/>
						</g>
					</g>
					<g transform="matrix(1, 0, 0, 1, 21.6397, 50.555)">
						<g id="_x30_603-cap">
							
								<rect x="-52.8" y="-159.7" transform="matrix(2.535182e-06 1 -1 2.535182e-06 -190.9935 -117.1527)" class="st10" width="31.8" height="11.3"/>
							<g>
								<g>
									<path class="st11" d="M-31.2-142.7L-31.2-142.7L-31.2-142.7v-0.4l0,0c-1-0.3-3.3-0.5-4.5-0.5s-5.8,0.2-6.9,0.5l0,0l0,0v4.9
										h11.4L-31.2-142.7z"/>
									<path class="st11" d="M-31.6-165h0.4v-4.8h-11.4v4.8c1.1,0.4,5.7,0.8,6.9,0.8C-34.2-164.2-32.9-164.5-31.6-165z"/>
								</g>
							</g>
							
								<rect x="-47.4" y="-154.4" transform="matrix(2.535182e-06 1 -1 2.535182e-06 -185.5435 -122.5707)" class="st12" width="31.8" height="0.6"/>
							
								<rect x="-58.2" y="-154.3" transform="matrix(2.535182e-06 1 -1 2.535182e-06 -196.2435 -111.7347)" class="st13" width="31.8" height="0.6"/>
						</g>
					</g>
					<g transform="matrix(1, 0, 0, 1, 21.6397, 50.555)">
						<g id="_x30_603-cap_1_">
							
								<rect x="423.9" y="-510" transform="matrix(2.535182e-06 1 -1 2.535182e-06 -50.1351 -944.6177)" class="st14" width="46.6" height="25.3"/>
							<g>
								<g>
									<path class="st11" d="M459.9-480.7L459.9-480.7L459.9-480.7v-0.5l0,0c-2.3-0.5-7.4-0.8-10-0.8c-2.7,0-13,0.3-15.5,0.8l0,0
										l0,0v7.1h25.5V-480.7z"/>
									<path class="st11" d="M458.9-513.4h1v-7.2h-25.5v7.2c2.4,0.5,12.8,1.1,15.5,1.1C453.1-512.3,456.1-512.7,458.9-513.4z"/>
								</g>
							</g>
							
								<rect x="435.9" y="-498" transform="matrix(2.535182e-06 1 -1 2.535182e-06 -38.1352 -956.4656)" class="st12" width="46.6" height="1.3"/>
							
								<rect x="411.8" y="-498" transform="matrix(2.535182e-06 1 -1 2.535182e-06 -62.235 -932.4457)" class="st13" width="46.6" height="1.3"/>
						</g>
					</g>
					<g transform="matrix(1, 0, 0, 1, 21.6397, 50.555)">
						<g id="_x30_603-cap_2_">
							
								<rect x="395.9" y="-510" transform="matrix(2.535182e-06 1 -1 2.535182e-06 -78.135 -916.5538)" class="st14" width="46.6" height="25.3"/>
							<g>
								<g>
									<path class="st11" d="M431.9-480.7L431.9-480.7L431.9-480.7v-0.5l0,0c-2.3-0.5-7.4-0.8-10-0.8c-2.7,0-13.1,0.3-15.5,0.8
										l0,0l0,0v7.1h25.5V-480.7z"/>
									<path class="st11" d="M430.9-513.4h1v-7.2h-25.5v7.2c2.4,0.5,12.8,1.1,15.5,1.1C425.1-512.3,428.1-512.7,430.9-513.4z"/>
								</g>
							</g>
							
								<rect x="407.8" y="-498" transform="matrix(2.535182e-06 1 -1 2.535182e-06 -66.235 -928.5018)" class="st12" width="46.6" height="1.3"/>
							
								<rect x="383.8" y="-498" transform="matrix(2.535182e-06 1 -1 2.535182e-06 -90.2348 -904.3738)" class="st13" width="46.6" height="1.3"/>
						</g>
					</g>
					<g>
						<circle class="st2" cx="6.4" cy="-453.4" r="22"/>
						<circle class="st15" cx="6.4" cy="-453.4" r="4"/>
					</g>
					<g>
						<circle class="st2" cx="70.4" cy="-453.4" r="22"/>
						<circle class="st15" cx="70.4" cy="-453.4" r="4"/>
					</g>
					<g>
						<circle class="st2" cx="134.4" cy="-453.4" r="22"/>
						<circle class="st15" cx="134.4" cy="-453.4" r="4"/>
					</g>
					<g>
						<circle class="st2" cx="230.4" cy="-83.4" r="14.5"/>
						<circle class="st15" cx="230.4" cy="-83.4" r="2.6"/>
					</g>
					
						<rect x="230.3" y="-465.9" transform="matrix(2.535182e-06 1 -1 2.535182e-06 -188.5142 -696.2006)" class="st1" width="47.1" height="47.1"/>
					<g>
						<g>
							<g transform="matrix(-4.37114e-08, -1, 1, -4.37114e-08, 84.5762, 56.1711)">
								<text transform="matrix(1 0 0 1 110.1663 474.2782)" class="st16 st17">A0</text>
							</g>
						</g>
						<g>
							<g transform="matrix(-4.37114e-08, -1, 1, -4.37114e-08, 84.5762, 48.6145)">
								<text transform="matrix(1 0 0 1 163.0628 474.2782)" class="st16 st17">A1</text>
							</g>
						</g>
						<g>
							<g transform="matrix(-4.37114e-08, -1, 1, -4.37114e-08, 84.5762, 40.6477)">
								<text transform="matrix(1 0 0 1 218.8304 474.2782)" class="st16 st17">0</text>
							</g>
						</g>
						<g>
							<g transform="matrix(-4.37114e-08, -1, 1, -4.37114e-08, 84.5762, 33.4485)">
								<text transform="matrix(1 0 0 1 269.2249 474.2782)" class="st16 st17">1</text>
							</g>
						</g>
						<g>
							<g transform="matrix(-4.37114e-08, -1, 1, -4.37114e-08, 58.9067, 32.0383)">
								<text transform="matrix(1 0 0 1 279.096 294.5922)" class="st15 st16 st18">M328P</text>
							</g>
						</g>
						<g>
							<g transform="matrix(-4.37114e-08, -1, 1, -4.37114e-08, 84.5762, 26.2498)">
								<text transform="matrix(1 0 0 1 319.6161 474.2782)" class="st16 st17">2</text>
							</g>
						</g>
						<g>
							<g transform="matrix(-4.37114e-08, -1, 1, -4.37114e-08, 84.5762, 19.0505)">
								<text transform="matrix(1 0 0 1 370.0105 474.2782)" class="st16 st17">3</text>
							</g>
						</g>
						<g>
							<g transform="matrix(-4.37114e-08, -1, 1, -4.37114e-08, 84.5762, 11.8484)">
								<text transform="matrix(1 0 0 1 420.4256 474.2782)" class="st16 st17">4</text>
							</g>
						</g>
						<g>
							<g transform="matrix(-4.37114e-08, -1, 1, -4.37114e-08, 84.5762, 4.6794)">
								<text transform="matrix(1 0 0 1 470.6082 474.2782)" class="st16 st17">5</text>
							</g>
						</g>
						<g>
							<g transform="matrix(-4.37114e-08, -1, 1, -4.37114e-08, 67.998, 3.5994)">
								<text transform="matrix(1 0 0 1 478.1688 358.2314)" class="st16 st17">G</text>
							</g>
							<g transform="matrix(-4.37114e-08, -1, 1, -4.37114e-08, 70.998, 3.5994)">
								<text transform="matrix(1 0 0 1 478.1688 379.2314)" class="st16 st17">N</text>
							</g>
							<g transform="matrix(-4.37114e-08, -1, 1, -4.37114e-08, 73.998, 3.5994)">
								<text transform="matrix(1 0 0 1 478.1688 400.2314)" class="st16 st17">D</text>
							</g>
						</g>
						<g>
							<g transform="matrix(-0.2588, -0.9659, 0.9659, -0.2588, 78.0762, 35.6184)">
								<text transform="matrix(1 0 0 1 134.4152 479.9285)" class="st16 st19">VCC</text>
							</g>
						</g>
						<g>
							<g transform="matrix(-0.7071, -0.7071, 0.7071, -0.7071, 76.0254, 43.8079)">
								<text transform="matrix(1 0 0 1 -153.949 432.1358)" class="st16 st20">R</text>
							</g>
						</g>
						<g>
							<g transform="matrix(-0.7071, -0.7071, 0.7071, -0.7071, 76.0254, 50.4016)">
								<text transform="matrix(1 0 0 1 -186.5869 399.4979)" class="st16 st20">GND</text>
							</g>
						</g>
						<g>
							<g transform="matrix(-5.96046e-08, -1, 1, -5.96046e-08, 67.3086, 56.8274)">
								<text transform="matrix(1 0 0 1 105.5726 353.4052)" class="st16 st17">BAT</text>
							</g>
						</g>
					</g>
					<g>
						<g transform="matrix(1, 0, 0, 1, 21.5539, 31.3385)">
							<g id="led-0603_3_">
								<line class="st21" x1="313.7" y1="-134.7" x2="313.7" y2="-103.7"/>
								
									<rect x="312.6" y="-133.6" transform="matrix(2.535182e-06 1 -1 2.535182e-06 209.2555 -447.2487)" class="st8" width="31.4" height="29.2"/>
								<path class="st22" d="M313.7-114.4c0,0,2,2.8,1.8,3.7c-0.2,0.9,0.6,2.3,0,2.9l-1.8-0.1V-114.4z"/>
								<g>
									
										<rect x="326.4" y="-121.4" transform="matrix(2.535182e-06 1 -1 2.535182e-06 208.8976 -447.5946)" class="st23" width="3.6" height="4.1"/>
									
										<rect x="324.4" y="-119.5" transform="matrix(2.535182e-06 1 -1 2.535182e-06 206.8477 -445.6327)" class="st9" width="3.6" height="0.2"/>
								</g>
								<g>
									<polygon class="st24" points="322.1,-111.9 321.6,-107.8 324.8,-107.8 324.3,-111.9 									"/>
									<g>
										<path class="st24" d="M322.9-111.6C322.9-111.6,322.9-111.7,322.9-111.6c0.2-1.2,0.4-1.9,0.7-2.6c0.3-0.9,3.3-2.4,3-3.5
											c0-0.1,0.1-0.3,0.2-0.3c0.2,0,0.3,0,0.3,0.2c0.4,1.3-2.6,2.9-3,3.8c-0.3,0.6-0.5,1.4-0.7,2.4c0,0.1-0.1,0.2-0.3,0.2
											C323.1-111.4,322.9-111.5,322.9-111.6z"/>
									</g>
									<polygon class="st24" points="334.4,-126.5 334.9,-130.7 331.8,-130.7 332.2,-126.5 									"/>
									<g>
										<path class="st24" d="M327.9-119.5c0-0.1,0.1-0.2,0.2-0.2c1.3-0.3,4.9-4.7,4.9-8.1c0-0.2,0.1-0.2,0.3-0.2
											c0.2,0,0.3,0.1,0.3,0.2l0,0c0,3.2-3.3,8.1-5.3,8.5C328.1-119.2,328-119.3,327.9-119.5
											C327.9-119.4,327.9-119.4,327.9-119.5z"/>
									</g>
									<path class="st24" d="M327.9-117.5c0,0,0-1.5-1.3-1.6c0,0.3,0,1.6,0,1.6H327.9z"/>
									<path class="st24" d="M329.2-119.3c0,0-1.3,0.7-1.5,0.2s-0.2-0.8,0.1-1C328.2-120.4,329.2-119.3,329.2-119.3z"/>
									<path class="st25" d="M326.4-117.8c0.4,1.2-2.6,2.6-3,3.5c-0.3,0.6-0.5,1.4-0.7,2.6h0.3c0.1-1.1,0.4-1.9,0.7-2.6
										c0.3-0.9,3.3-2.4,3-3.5H326.4z"/>
									<polygon class="st25" points="332,-126.5 331.5,-130.7 331.8,-130.7 332.2,-126.5 									"/>
									<path class="st25" d="M327.9-119.7c1.2-0.3,5.2-4.6,4.9-8.1h0.3c0.3,3.8-3.7,7.8-4.9,8.1H327.9z"/>
									<path class="st25" d="M326.3-119.1c0,0.3,0,1.6,0,1.6h0.2c0,0,0-1.3,0-1.6H326.3z"/>
									<path class="st25" d="M327.6-120.1c-0.3,0.3-0.3,0.6-0.1,1h0.3c-0.2-0.5-0.2-0.8,0.1-1H327.6z"/>
								</g>
								
									<rect x="333.6" y="-119.5" transform="matrix(2.535182e-06 1 -1 2.535182e-06 223.2775 -462.1146)" class="st26" width="18.1" height="0.2"/>
								<path class="st27" d="M342.9-130.6h-29.2v22.8h29.2V-130.6z"/>
								<path class="st28" d="M340.1-130.4h1.2c0.6,0.1,1.2-0.1,1.2,0.4c0,2.6,0,20.1,0,20.8c0,0.7-0.3,0.8-0.3,0
									c0-0.6,0-16.7,0-18.6c0-2-0.4-2.2-0.8-2.2h-1.2C339.4-130,339.4-130.4,340.1-130.4z"/>
								<path class="st29" d="M314.6-108.4c-0.3,0-0.6,0-0.6-0.4c0-2.6,0-20,0-20.6c0-0.7,0.3-0.8,0.3,0c0,0.6,0,13.4,0,15.4
									C314.3-111.5,314.6-108.4,314.6-108.4z"/>
								<path class="st24" d="M313.7-134.7v3.3h2.2c0.5,0,0.9,0.3,1.2,0.8H343v-4.3h-29h-0.2"/>
								
									<rect x="340.6" y="-133" transform="matrix(2.535182e-06 1 -1 2.535182e-06 209.9215 -475.6226)" class="st26" width="4.3" height="0.2"/>
								<path class="st24" d="M313.7-103.3h0.2h29v-4.6h-27.7c-0.2,0.4-0.6,0.8-1.2,0.8h-0.4v3.5"/>
								
									<rect x="340.5" y="-105.7" transform="matrix(2.535182e-06 1 -1 2.535182e-06 237.1635 -448.3728)" class="st26" width="4.6" height="0.2"/>
							</g>
						</g>
					</g>
				</g>
			</g>
		</g>
	</g>
	<g>
		<g transform="translate(0,97.8037)">
			<g transform="matrix(0,-1,1,0,0,0)">
				<g id="breadboard_1_">
					<polygon id="wefwf" class="st30" points="-566.9,7.7 -378,7.7 -378,26.8 -566.9,26.8 					"/>
					<path id="path21_8_" class="st31" d="M-531.2,45.7c-6.3,0-6.5-2.2-6.5-5V10.2c0-2.8,2.1-5,8.4-5h114.9c6.4,0,8.5,2.3,8.5,5.2
						v30.4c0,2.8-2.2,5-8.5,5L-531.2,45.7L-531.2,45.7z"/>
					<path id="path21_7_" class="st32" d="M-531.2,36.9c-6.3,0-6.5-2.2-6.5-5v-38c0-2.8,2.1-5,8.4-5h114.9c6.4,0,8.5,2.3,8.5,5v38
						c0,2.8-2.2,5-8.5,5H-531.2L-531.2,36.9z"/>
					<g>
						<ellipse transform="matrix(-2.535182e-06 -1 1 -2.535182e-06 -536.9138 -511.0424)" cx="-524" cy="12.9" rx="3.9" ry="5.2"/>
						<ellipse transform="matrix(-2.535182e-06 -1 1 -2.535182e-06 -432.7131 -406.848)" cx="-419.8" cy="12.9" rx="3.9" ry="5.1"/>
					</g>
					<path class="st15" d="M-511.5,2.9h3.2v23c0,1.4,1.6,3,5.1,3h62.9c1.9,0,3.5-0.5,4.4-1.4c0.5-0.5,0.7-1,0.7-1.5V2.9h3.2v23l0,0
						c0,1.4-0.6,2.7-1.6,3.8c-1.1,1.1-3.1,2.4-6.7,2.4h-62.9c-5.6,0-8.2-3.2-8.2-6.2v-23H-511.5z"/>
					<path id="path21_6_" class="st33" d="M-502,29.4c-4.7,0-6.6-1.7-6.7-3.8V1.8c0-2,1.5-3.7,6.2-3.7h61.3c4.7,0,6.3,1.8,6.3,3.8
						v23.8c0,2.2-2,3.8-6.8,3.8L-502,29.4L-502,29.4z"/>
					<path id="path21_5_" class="st34" d="M-502,22.8c-4.7,0-6.6-1.7-6.7-3.8V-3.1c0-2,1.5-3.7,6.2-3.7h61.3c4.7,0,6.3,1.7,6.3,3.7
						V19c0,2.2-2,3.8-6.8,3.8L-502,22.8L-502,22.8z"/>
				</g>
			</g>
		</g>
	</g>
	<path d="M144.8,519.7c-1.4,0-2.8-0.2-4.1-0.7l-68.9-23.5c-6.7-2.3-10.3-9.6-8-16.2c2.3-6.7,9.5-10.2,16.2-8l68.9,23.5
		c6.7,2.3,10.3,9.6,8,16.2C155.1,516.4,150.2,519.7,144.8,519.7z"/>
	<path d="M17.8,497c-7,0-12.7-5.6-12.8-12.6c-0.1-7.1,5.6-12.9,12.6-13l58.2-0.8c6.9-0.3,12.9,5.6,13,12.6c0.1,7.1-5.6,12.9-12.6,13
		L18,497C17.9,497,17.8,497,17.8,497z"/>
	<path class="st35" d="M17.8,490.6c-3.5,0-6.4-2.8-6.4-6.3s2.8-6.4,6.3-6.5l58.2-0.8H76c3.5,0,6.4,2.8,6.4,6.3s-2.8,6.4-6.3,6.5
		L17.8,490.6L17.8,490.6z"/>
	<path class="st36" d="M76,669.3c-5.2,0-10.1-3.2-12-8.3c-2.5-6.6,0.9-14,7.5-16.5l184.1-69c6.6-2.5,14,0.9,16.5,7.5
		s-0.9,14-7.5,16.5l-184.1,69C79,669.1,77.5,669.3,76,669.3z"/>
	<g>
		<path class="st36" d="M76,669.3C75.9,669.3,75.9,669.3,76,669.3l-58.2-0.2c-7.1,0-12.8-5.8-12.8-12.8s5.8-12.8,12.8-12.8l0,0
			l58.1,0.2c7.1,0,12.8,5.8,12.8,12.8C88.7,663.6,83,669.3,76,669.3z"/>
		<path class="st37" d="M76,662.9C76,662.9,75.9,662.9,76,662.9l-58.2-0.2c-3.5,0-6.4-2.9-6.4-6.4s2.9-6.4,6.4-6.4l0,0l58.1,0.2
			c3.5,0,6.4,2.9,6.4,6.4C82.4,660.1,79.5,662.9,76,662.9z"/>
	</g>
	<path class="st35" d="M144.8,513.3c-0.7,0-1.4-0.1-2.1-0.3l-68.9-23.5c-3.3-1.1-5.1-4.8-4-8.1c1.1-3.3,4.8-5.1,8.1-4l68.9,23.5
		c3.3,1.1,5.1,4.8,4,8.1C150,511.7,147.5,513.3,144.8,513.3z"/>
	<path class="st37" d="M76,662.9c-2.6,0-5-1.6-6-4.2c-1.2-3.3,0.4-7,3.7-8.2l184.1-69c3.3-1.3,7,0.4,8.2,3.8c1.2,3.3-0.4,7-3.7,8.2
		l-184.1,69C77.5,662.8,76.7,662.9,76,662.9z"/>
</g>
</svg>
