<!DOCTYPE svg PUBLIC "-//W3C//DTD SVG 20010904//EN" "http://www.w3.org/TR/2001/REC-SVG-20010904/DTD/svg10.dtd">
<svg version="1.0" xmlns="http://www.w3.org/2000/svg" width="917px" height="154px" viewBox="0 0 9170 1540" preserveAspectRatio="xMidYMid meet">
<g id="layer1" fill="#00aeef" stroke="none">
 <path d="M5800 800 l0 -630 55 0 55 0 0 630 0 630 -55 0 -55 0 0 -630z"/>
 <path d="M7365 1141 c-131 -35 -180 -125 -180 -336 0 -155 19 -220 85 -285 27 -27 61 -50 86 -58 51 -15 166 -16 217 -1 47 13 102 60 127 109 25 50 43 163 35 223 l-7 47 -220 0 -219 0 6 48 c9 62 33 111 68 136 26 19 42 21 188 20 l159 -1 0 42 0 42 -47 7 c-80 11 -266 16 -298 7z m260 -438 c-14 -95 -56 -148 -127 -159 -111 -18 -181 40 -204 169 l-6 37 171 0 172 0 -6 -47z"/>
 <path d="M7953 1140 c-43 -14 -90 -63 -103 -108 -13 -48 -13 -143 1 -179 16 -44 58 -81 108 -97 37 -12 222 -36 278 -36 16 0 18 -75 3 -114 -22 -59 -68 -68 -277 -51 l-83 7 0 -45 0 -44 83 -11 c113 -16 250 -15 291 2 47 19 83 62 95 112 6 24 11 133 11 243 l0 200 26 20 c15 12 33 21 40 21 15 0 18 30 7 69 -5 21 -10 23 -51 17 -25 -3 -61 -15 -79 -26 l-34 -20 -62 20 c-71 24 -207 34 -254 20z m232 -106 l65 -16 0 -106 0 -105 -102 7 c-159 11 -203 42 -195 139 6 72 34 97 109 97 32 0 88 -7 123 -16z"/>
 <path d="M6410 664 l0 -467 218 6 c233 6 269 12 325 58 53 43 71 91 70 184 0 95 -17 141 -66 181 l-35 28 42 27 c61 38 86 94 86 190 0 127 -30 187 -114 232 -38 21 -56 22 -283 25 l-243 3 0 -467z m461 344 c69 -38 91 -159 42 -227 -39 -53 -84 -66 -245 -69 l-148 -4 0 161 0 161 156 0 c142 0 160 -2 195 -22z m-31 -416 c89 -44 95 -209 8 -262 -29 -18 -50 -20 -180 -20 l-148 0 0 150 0 150 143 0 c115 0 149 -3 177 -18z"/>
 <path d="M8550 795 l0 -335 55 0 c48 0 55 2 55 20 0 19 1 19 48 -2 39 -18 66 -22 154 -23 93 0 110 3 135 21 78 58 93 126 93 432 l0 222 -54 0 -54 0 -4 -247 c-3 -271 -8 -296 -63 -321 -40 -18 -124 -14 -193 9 l-62 21 0 269 0 269 -55 0 -55 0 0 -335z"/>
 </g>
<g id="layer2" fill="#36383b" stroke="none">
 <path d="M1200 1433 c-14 -2 -46 -11 -71 -19 -121 -39 -154 -183 -65 -282 l34 -37 -19 -35 c-25 -46 -24 -78 4 -130 l22 -43 -27 -29 c-31 -33 -58 -112 -58 -168 0 -61 27 -133 62 -167 74 -69 104 -75 361 -67 l217 7 0 75 0 75 -46 -6 c-39 -4 -44 -2 -38 12 13 32 16 117 5 159 -26 96 -106 142 -251 145 -74 2 -79 3 -85 26 -11 42 11 51 153 61 206 13 251 46 259 184 4 60 1 78 -19 116 -46 88 -151 131 -318 129 -52 -1 -106 -4 -120 -6z m244 -174 c28 -22 34 -50 12 -68 -13 -11 -42 -15 -164 -26 l-62 -5 -17 34 c-30 65 -2 84 123 85 68 1 86 -2 108 -20z m-62 -509 c26 -32 24 -98 -4 -127 -26 -28 -101 -32 -135 -8 -45 32 -38 129 10 154 35 17 108 7 129 -19z"/>
 <path d="M2636 1140 c-40 -12 -84 -57 -97 -99 -6 -20 -13 -123 -16 -228 l-6 -193 -33 0 -34 0 0 -80 0 -80 35 0 35 0 0 -90 0 -90 95 0 95 0 0 90 0 90 85 0 85 0 0 80 0 80 -85 0 -85 0 0 164 c0 196 0 196 94 196 l63 0 6 72 c3 40 4 74 2 76 -19 19 -187 27 -239 12z"/>
 <path d="M4247 1138 c-53 -14 -92 -55 -112 -119 -13 -42 -18 -109 -22 -306 l-6 -253 55 0 55 0 5 243 c5 282 12 310 82 336 43 16 130 7 199 -22 l37 -16 0 -270 0 -271 55 0 55 0 0 335 0 335 -55 0 c-49 0 -55 -2 -55 -20 0 -19 -2 -19 -22 -6 -59 38 -192 55 -271 34z"/>
 <path d="M4985 1141 c-131 -35 -180 -125 -180 -336 0 -155 19 -220 85 -285 27 -27 61 -50 86 -58 51 -15 166 -16 217 -1 47 13 102 60 127 109 25 50 43 163 35 223 l-7 47 -220 0 -219 0 6 48 c9 62 33 111 68 136 26 19 42 21 188 20 l159 -1 0 42 0 42 -47 7 c-80 11 -266 16 -298 7z m260 -438 c-14 -95 -56 -148 -127 -159 -111 -18 -181 40 -204 169 l-6 37 171 0 172 0 -6 -47z"/>
 <path d="M90 675 l0 -455 100 0 100 0 0 370 0 370 165 0 165 0 0 85 0 85 -265 0 -265 0 0 -455z"/>
 <path d="M710 795 l0 -335 95 0 95 0 0 335 0 335 -95 0 -95 0 0 -335z"/>
 <path d="M1760 660 l0 -470 95 0 95 0 0 146 c0 135 1 146 18 139 71 -27 137 -36 196 -26 67 12 100 32 133 80 35 52 43 119 43 366 l0 235 -90 0 -90 0 0 -184 c0 -318 -19 -353 -172 -322 l-38 7 0 249 0 250 -95 0 -95 0 0 -470z"/>
 <path d="M3010 664 l0 -467 218 6 c233 6 269 12 325 58 53 43 71 91 70 184 0 95 -17 141 -66 181 l-35 28 42 27 c61 38 86 94 86 190 0 127 -30 187 -114 232 -38 21 -56 22 -283 25 l-243 3 0 -467z m461 344 c69 -38 91 -159 42 -227 -39 -53 -84 -66 -245 -69 l-148 -4 0 161 0 161 156 0 c142 0 160 -2 195 -22z m-31 -416 c89 -44 95 -209 8 -262 -29 -18 -50 -20 -180 -20 l-148 0 0 150 0 150 143 0 c115 0 149 -3 177 -18z"/>
 <path d="M3820 650 l0 -480 55 0 55 0 0 480 0 480 -55 0 -55 0 0 -480z"/>
 <path d="M710 285 l0 -95 95 0 95 0 0 95 0 95 -95 0 -95 0 0 -95z"/>
 <path d="M5360 330 c-14 -14 -20 -33 -20 -68 0 -63 24 -87 87 -87 58 0 83 28 83 91 0 59 -25 84 -85 84 -32 0 -51 -6 -65 -20z m100 -10 c13 -8 13 -10 -1 -10 -9 0 -24 -10 -32 -22 l-16 -23 0 23 c-2 46 -21 20 -21 -28 0 -48 1 -50 29 -50 37 0 59 25 44 49 -15 24 2 54 17 31 26 -40 -5 -90 -55 -90 -58 0 -86 69 -45 110 21 21 56 26 80 10z m-23 -76 c-3 -3 -12 -4 -19 -1 -8 3 -5 6 6 6 11 1 17 -2 13 -5z"/>
 </g>

</svg>